<svg xmlns="http://www.w3.org/2000/svg" width="180" height="180" viewBox="0 0 47.625 47.625"
   xmlns:xlink="http://www.w3.org/1999/xlink">
   <style>
      #outer {
         fill: #7EBB03;
      }

      #band {
         fill: #fff;
      }

      #inner {
         fill: #fc8402;
      }

      .white {
         fill: #fff;
      }

      .flesh {
         fill: #f0f0ec;
      }

      .dark-fill {
         fill: #666;
      }

      .darker-fill {
         fill: #9b9b99;
      }

      .darker-fill {
         fill: #4d4d4d;
      }

      .light-fill {
         fill: #d5d5d0;
      }

      .lightest-fill {
         fill: #f1f1f1;
      }

      .none {
         fill: none;
      }

      .outline {
         stroke: #666;
      }

      html[data-theme="dark"] {
         #outer {
            fill: #fc8402;
         }

         #band {
            fill: #fff;
         }

         #inner {
            fill: #7EBB03;
         }
      }

      @media (prefers-color-scheme: dark) {
         #outer {
            fill: #fc8402;
         }

         #band {
            fill: #fff;
         }

         #inner {
            fill: #7EBB03;
         }
      }
   </style>

   <g id="bear" transform="translate(-.057 -.057)">
      <g id="background">
         <circle id="outer" cx="23.812" cy="23.813" r="23.755" />
         <circle id="band" cx="23.812" cy="23.813" r="19.194" />
         <circle id="inner" cx="23.812" cy="23.813" r="17.446" />
      </g>
      <g id="right-forearm" style="stroke-width:4.00363;">
         <g style="stroke-width:4.74694;">
            <g style="stroke-width:4.74694;">
               <path
                  d="M364.642 438.215s-36.11-6.104-35.34 18.87c-2.718 5.954-25.29 20.056-46.94 26.923-33.89 10.749-60.106 20.193-78.43 24.389-4.287.981-2.805 1.396-6.225 1.753 16.723-4.345 16.393 4.093 29.433 4.53 11.849-12.415 22.94-7.572 27.543-4.327 23.31-11.39 29.304-5.271 51.81-11.893 21.805 1.578 45.906-2.553 74.769-69.206z"
                  class="white" transform="matrix(.01372 .02634 -.02289 .0158 31.292 1.962)" />
               <g style="stroke-width:1.53079;">
                  <g style="stroke-width:1.7904;">
                     <path class="flesh"
                        d="M168.675 496.683c-2.305 2.442-4.742 1.867-4.928 1.326 2.378-2.406-.708-4.826-3.365-5.025 0 0-2.655 1.131-1.183 5.025 0 0-1.895 0-2.464-.758s-1.137-1.706-1.137-2.653c0-.948.758-2.085 0-2.654-.758-.568-1.516-.947-1.516-.947-.934 4.681-3.97 2.049-7.013 7.012.32-4.61.354-6.394-2.274-9.855 0 0-.19-.758-.948.38-1.534 4.095-3.918 3.953-6.633 5.685-1.706 1.137-2.274 1.705-2.274 1.705-.288-2.183.831-3.533 1.347-5.491.697-2.71.052-5.468-.589-5.88-.948-.568-1.516-1.895-1.516-1.137-.12 4.932-4.037 8.222-7.581 8.339.59-.788 1.122-2.687-.758-5.496-2.925-1.43-3.174 2.947-8.34 3.6 3.852-1.834 4.439-12.197-.568-12.887-1.104 1.561-5.692-.396-5.692-.396-.883-.123 3.309 3.444 3.244 1.656l-2.48 5.373s1.732-4.123 0-7.037c-.723 1.871-1.182 2.681-2.463 2.11 2.901-6.839-3.95-4.332-5.875-19.9-.696 2.806-.44 7.465-3.412 9.666.938-2.562-2.173-8.059-5.184-10.444-2.51-1.185-2.6-.882-2.304-2.639 1.018-1.208-.17-2.444-.85-2.08-.726-.689-1.064 3.665-4.739 5.876 2.194-5.09-.172-4.706.758-9.855.477-1.327-.459-3.032-2.084-3.79 1.553 4.037-1.215 10.064-2.275 7.77.444-1.232.498-2.448.378-3.659-.055-4.142-2.388-7.358-3.708-10.91-.745-2.04-.95-3.854-.721-5.937.158-1.435.336-3.029.872-4.879l36.156-16.31s11.94 10.992 11.75 24.449c9.058.188 12.846 12.894 16.49 14.403 10.332 4.28 17.842 11.095 24.737 18.394 1.291.83 2.582 2.158 3.932 3.362 2.702 1.463 5.856.266 10.03-.01 7.675-.301 9.66 6.054 9.66 6.054s5.486 5.272 4.348 11.909c-1.138 6.636-3.322 11.2-7.103 13.49-3.78 2.29-3.228 8.239-11.096 5.022-7.868-3.216-3.219-10.083-3.219-10.083"
                        transform="matrix(-.02541 -.076 -.06604 .02925 58.7 14.374)" />
                     <path class="light-fill" transform="matrix(.08255 .02056 -.01786 .095 5.346 -32.342)"
                        d="M298.973 426.142c.094 2.589 1.867 1.944 3.027 3.389.407.489.808 1.677 1.25 2.688.648 1.871 2.603 2.378 4.156 2.875 1.26.4 2.582.756 3.875 1.25 9.583 2.483 23.112 9.523 29.5 11.5 3.052-2.083 7.289-1.218 13.094 2.78l2.531-3.03-4.125-1.813c-1.812-1.325-4.502-3.026-6.844-3.469l-5.5-.437-3.062-.594c-4.112-2.134-8.593-4.564-14-6.156-2.305-.679-5.12-1.748-7.594-1.688l-6.656-1.969c-2.042-.623-2.715-6.08-6.4-8.998-3.686-2.918-6.964-1.52-6.964-1.52s3.076-.362 3.712 5.192zm-14.817 10.108c4.919 1.34 4.831 5.45 6.25 7.938.109.19.215.393.344.562.013.02.018.043.031.063.553.795 1.368 1.363 2.75 1.468a4.759 4.759 0 0 0-.062 1.781c.009.055.02.105.031.157.266 1.441 1.227 2.18 1.563 2.094.691-2.828 4.411-2.263 5.03.187.003.009-.001.022 0 .031.005.022.044.128.032.344-.002.033.005.023 0 .062-.001.019-.03.044-.031.063-.093.618-.592 1.824-3.063 2.375 0 0 .08.104.188.25-.033.008-.06.024-.094.031 0 0 .864 1.325 1.656 1.375.793.05 1.711-.002 2.375-.437.664-.436 1.129-1.489 1.875-1.22.47.17.818.342 1.063.47.115.097.184.184.219.218-.667.672-.969 1.25-1.094 1.782-.006.018.005.044 0 .062-.025.116-.054.23-.063.344-.195 1.444.857 2.702-.593 5.781l.25-.187c-.042.096-.079.181-.125.28 3.082-2.342 4.336-3.156 7.968-2.905 0 0 .121-.053.219 0a.557.557 0 0 1 .094.25c.003.02-.001.04 0 .062-.006.054-.012.116-.031.188-.026.095-.07.18-.125.312-.812 1.11-1.145 2.049-1.25 2.906-.003.02.003.044 0 .063-.002.021.002.041 0 .062-.18 1.376.228 2.59.25 4.25-.013 1.718-.25 2.375-.25 2.375a4.65 4.65 0 0 0 .187-.093c-.002.01-.031.093-.031.093 1.662-.801 2.114-2.207 3.25-3.468 1.578-1.734 3.792-2.541 4.375-2.282.567.274 1.256.238 1.5.313-.022.03-.059.05-.125.094-3.317 2.292-3.94 6.205-2.531 8.75.006.012.025.019.03.03l.094.157c.057.11.093.208.157.313.28-.775 1.293-2.277 4.125-2.25.834.495 1.002 1.124.969 1.906-.178 1.323-.948 3.082.25 5.531-.007-.04.005-.084 0-.125.059.145.114.289.187.438-.424-3.099 4.765-7.542 7.938-6.47.453.154.87.415 1.218.813.01-.086-.009-.143-.031-.218-.003-.01.004-.021 0-.032-.109-.306-.496-.53-1-.656-.784-.32-1.706-.287-2.656-.031-.02.005-.043-.005-.063 0-.824.143-1.536.412-1.843.781-.01.011-.023.02-.032.031-.128.075-.25.17-.375.25l-.562.032-.938.03c.08-.411.309-1.258.22-2.405 1.026-.012 1.333-.052 1.374-.375-.511-2.599-2.414-3.1-4.469-2.844-1.14.422-.453-.021-1.75.656 1.645-3.138 4.387-4.098 4.594-4.25-.4-.477-2.98-2.81-3.531-3.281-3.307-2.825-5.916 1.366-6.875 1.125-1.881-.474 2.554-4.2.031-5.938-1.137-.784-3.41-.703-6.594.407-1.308-1.094 2.206-3.958 1.282-4.657-.63-.476-3.464-1.448-4.063-1.906.06-3.923-4.479-7.273-7.062-4.937-.508-.733.306-1.295.687-2.25-6.012-1.24-3.901-6.296-11.094-10.344" />
                     <path
                        d="M116.556 411.587s11.94 10.992 11.75 24.449c9.058.188 12.846 12.894 16.49 14.403 10.332 4.28 17.842 11.095 24.737 18.394 1.291.83 2.582 2.158 3.932 3.362 2.702 1.463 5.856.266 10.529.006m-15.32 24.482c-2.304 2.442-4.741 1.867-4.927 1.326 2.378-2.406-.708-4.826-3.365-5.025 0 0-2.655 1.131-1.183 5.025 0 0-1.895 0-2.464-.758s-1.137-1.706-1.137-2.653c0-.948.758-2.085 0-2.654-.758-.568-1.516-.947-1.516-.947-.934 4.681-3.97 2.049-7.013 7.012.32-4.61.354-6.394-2.274-9.855 0 0-.19-.758-.948.38-1.534 4.095-3.918 3.953-6.633 5.685-1.706 1.137-2.274 1.705-2.274 1.705-.288-2.183.831-3.533 1.347-5.491.697-2.71.052-5.468-.589-5.88-.948-.568-1.516-1.895-1.516-1.137-.12 4.932-4.037 8.222-7.581 8.339.59-.788 1.122-2.687-.758-5.496-2.925-1.43-3.174 2.947-8.34 3.6 3.852-1.834 4.439-12.197-.568-12.887-1.104 1.561-5.692-.396-5.692-.396-.883-.123 3.309 3.444 3.244 1.656l-2.48 5.373s1.732-4.123 0-7.037c-.723 1.871-1.182 2.681-2.463 2.11 2.901-6.839-3.95-4.332-5.875-19.9-.696 2.806-.44 7.465-3.412 9.666.937-2.562-2.173-8.059-5.184-10.444-2.51-1.185-2.6-.882-2.304-2.639 1.018-1.208-.17-2.444-.85-2.08-.726-.689-1.064 3.665-4.739 5.876 2.194-5.09-.172-4.706.758-9.855.477-1.327-.459-3.032-2.084-3.79 1.553 4.037-1.215 10.064-2.275 7.77.444-1.232.498-2.448.378-3.659-.055-4.142-2.388-7.358-3.708-10.91-.745-2.04-.95-3.854-.721-5.937.158-1.435.336-3.029.872-4.879"
                        class="none outline" style="stroke-width:1.7904;"
                        transform="matrix(-.02541 -.076 -.06604 .02925 58.7 14.374)" />
                  </g>
               </g>
            </g>
         </g>
      </g>
      <g id="tree">
         <path class="light-fill outline"
            style="stroke-width:1.49049;stroke-linecap:round;stroke-linejoin:miter;stroke-miterlimit:4;stroke-dasharray:none;stroke-dashoffset:0;stroke-opacity:1;"
            d="m57.586 455.173-.75 30.757-16.937-16.062s-3.74.257-8.46 4.977c-4.721 4.721-5.353 8.866-5.353 8.866l29.938 31.657-1.125 40.906-17-16.094s-3.472-.547-8.192 4.174c-4.721 4.72-5.621 9.67-5.621 9.67l30 31.719-1.125 40.906-17.062-16.156s-4.543.524-9.264 5.245c-4.72 4.72-4.549 8.598-4.549 8.598l30.094 31.782-1.594 65.459s11.705 8.562 26.563 8.562c17.428 0 26.562-8.562 26.562-8.562l-.656-31.303 29.156-30.781s-2.436-4.342-6.156-8.063c-3.721-3.72-7.688-5.781-7.688-5.781l-16.093 15.25-1.125-41 29.062-30.719s-2.436-4.342-6.156-8.062c-3.721-3.721-7.688-5.782-7.688-5.782l-16.031 15.188-1.125-41 29-30.656s-2.436-4.342-6.156-8.063c-3.721-3.72-7.688-5.781-7.688-5.781L98.4 520.149l-2.067-57.778c-12.149-8.288-23.023-11.302-38.746-7.198z"
            transform="matrix(.08142 0 0 .10212 12.64 -36.833)" />
         <path class="flesh" style="stroke-width:1.5;"
            d="M84.524 467.267c-3.407.211-4.904-1.129-10.26-.754-2.136.878-13.014-7.044-13.014-7.044s-.074 18.275 1.606 24.655c1.68 6.38 6.47 13.397 6.47 13.397s-2.287-1.425-7.596-4.384c-5.309-2.959-13.393-10.928-20.837-17.536-2.36 3.033-4.578 7.723-9.014 8.68 5.44 5.737 10.27 12.36 17.196 18.06 5.322 4.38 13.278 7.284 15.186 14.502-.446 14.724-1.085 26.44-1.415 40.774-.053 2.316 3.638 8.408 3.57 10.787-7.914-6.398-20.078-15.906-28.21-21.605-.79 7.758-5.492 5.732-8.893 6.958 9.663 10.165 19.208 20.313 28.843 30.43-.018.604 5.321 7.101 5.303 7.705-.306 10.243-5.12 19.538-4.772 29.469.134 3.83 3.968 7.889 5.556 11.935.935 2.383.041 4.762-.024 7.088-7.694-6.533-19.67-16.894-27.545-23.147-.132 5.074-3.749 6.664-8.125 7.495 9.994 10.502 17.717 19.397 27.701 29.83-.055 2.504 5.238 3.937 5.169 6.44-.46 16.63-1.696 40.872-1.754 57.51 3.168.708 6.736 5 9.788 4.972 2.653-.025 4.786-4.361 7.57-4 5.395.701 7.861 4.333 13.374 3.817 2.068-.194 7.326-2.812 9.322-3.717.257-8.066-.228-32.922 2.044-40.624 2.64-2.635 3.253 4.003 6.777 1.305 5.35-4.096 13.38-15.146 18.335-21.671-2.17-3.08-4.874-5.823-8-7.938-3.922 3.726-9.716 6.058-12.309 11.546-2.858 6.051-5.18 8.264-8.035 10.981-.474-17.208-.921-37.632-1.437-54.84.867-.96 1.75-5.706 2.646-6.663 2.342-2.502 3.25.6 5.679-1.47 6.365-5.424 14.292-15.255 19.425-21.96-2.152-3.076-4.86-5.796-7.969-7.906-4.059 3.785-11.66 6.788-14.862 12.1-1.1 1.826-.055 8.112-.515 9.647-.547 1.827-3.144-2.676-3.768-6.664-.474-17.209-.921-34.797-1.437-52.004 3.203-3.53 6.076-3.43 9.293-6.192 5.93-5.09 12.121-12.636 17.289-19.262-2.175-3.06-4.85-5.845-8-7.907-4.708 4.448-8.252 5.814-12.927 10.262-2.021 1.922-2.904 8.02-7.198 11.105-1.066-21.586-.87-44.684-2.357-66.25-.895.315-1.596 1.35-3.115 1.78l-3.656 4.203Zm-21.162-10.013s5.492-3.03 14.394-1.137c8.902 1.894 13.259 5.493 14.585 6.44 1.325.947-3.41 2.652-5.872 2.841-2.462.19-5.871-.757-5.871-.757s4.166.378 6.629-.947c2.462-1.326 0-4.736-7.387-5.872-7.387-1.136-11.743-1.515-13.637-.379-1.894 1.137 2.84 3.978 4.924 4.546 2.084.568 5.682 1.326 5.304 1.326-.38 0-3.788 0-8.145-1.515-4.356-1.516-4.924-4.546-4.924-4.546zm6.25 1.894s2.462 2.84 8.334 3.599c5.871.757 8.523.947 7.387-1.137-1.137-2.083-6.819-2.652-6.25-2.462.568.19 2.272.568 3.03 1.894.757 1.326-5.682 1.136-8.523 0-2.841-1.137.189-2.084.189-2.084s-.758-.947-4.167.19zm7.387 0c-.379 0-2.652-.19-2.652.568s3.03 1.515 4.167.947S77 459.148 77 459.148zm-5.114-1.515s-2.273-.758-3.599.19c-1.326.946.568 2.082.568 2.082s-.378-1.325.758-1.515c1.137-.19 5.303-.19 4.925-.379-.38-.189-2.652-.378-2.652-.378zm7.008 6.25s-2.462.568-4.356.19c-1.894-.38-2.273-.38-2.273-.38s2.462 1.516 5.114 1.705c2.651.19 4.167.379 3.22-.379-.947-.757-1.705-1.136-1.705-1.136zm-39.649 9.723s.947 3.22-1.894 5.303c-2.84 2.083-7.955 5.493-7.955 3.599 0-1.894 3.03-5.682 4.546-7.008 1.515-1.326 2.841-1.137 1.705-.19-1.137.947-6.44 5.493-4.925 5.872 1.515.379 6.44-2.462 6.819-3.599.379-1.136 1.704-3.977 1.704-3.977zm-2.84 2.273c-.38.378-5.683 4.545-3.6 3.598 2.084-.947 4.357-2.083 3.978-3.598-.379-1.516-.379 0-.379 0zm1.515-3.41c-.569 0-3.03.758-1.705.758 1.326 0 2.652-.19 2.652-.19zm-2.905 71.216c-.568.379-1.136.568-3.788 3.22-2.651 2.652-6.06 4.356-4.167 5.114 1.894.757 3.22.757 6.44-1.515 3.22-2.273 4.356-6.25 2.841-4.357-1.515 1.894-3.41 4.735-5.114 4.546-1.704-.19 1.326-3.978 2.463-4.925 1.136-.947 1.325-2.083 1.325-2.083zm-.568 3.03c-1.326.38-3.977 4.546-2.083 2.652 1.894-1.894 3.03-2.84 2.462-2.84-.568 0-.379.188-.379.188zm3.03-3.598c-1.325-.379-3.03 0-1.704.568 1.326.568 1.326 2.462 1.705 1.705.378-.758 0-2.273 0-2.273zm-2.525 71.531s.568 4.357-1.704 5.872c-2.273 1.515-5.872 1.894-5.493 1.894.379 0 5.114-1.894 5.493-4.357.378-2.462-.758-3.409-1.894-2.462-1.137.947-2.273.947-2.273.947s2.273-2.462 3.977-3.03c1.705-.568 1.894 1.136 1.894 1.136zm-7.765 2.841c-.569.568-4.546 4.925-2.652 5.114 1.894.19 3.978-.568 3.03-.757-.947-.19-2.272-.19-1.515-1.516.758-1.325 1.137-2.84 1.137-2.84zm3.03-.379c-.947.38-2.84 1.326-2.84 2.463 0 1.136 1.325 2.462 1.514.947.19-1.515 2.273-3.788 2.463-2.652.189 1.137-3.03 2.652-1.705 2.652 1.326 0 3.41-.947 2.841-2.084-.568-1.136-.758-2.273-2.273-1.326z"
            transform="matrix(.08142 0 0 .10212 12.64 -36.833)" />
         <path class="white" transform="matrix(.08142 0 0 .10212 -.65 -28.949)"
            d="M209.607 404.35s-2.652-4.925-3.41-2.274c-.757 2.652-1.894 2.273-2.651 3.03-.758.759.757 2.274-.38 2.653-1.135.378 0 3.788 3.031 5.303 3.03 1.515 4.167 3.41 7.198 6.06 3.03 2.652 4.167 7.956 4.545 5.683.38-2.273-.378-7.576 1.137-5.303 1.515 2.272 3.03 3.788 4.924 5.682 1.894 1.894 5.682 6.818 5.682 6.818s0-2.273-1.515-4.924c-1.515-2.652 2.273.757 2.273-1.515 0-2.273-1.136-3.789-4.167-5.683-3.03-1.894-6.44-1.136-8.712-4.166-2.273-3.03-7.955-11.365-7.955-11.365zm23.107-12.501s3.03 9.47 3.03 12.88c0 3.408-1.894 3.787-3.03 3.408-1.137-.378.758 1.137 1.894 6.44 1.136 5.303 3.03 10.228 2.652 27.274-.38 17.047-1.137 12.122-3.41 17.425-2.273 5.304-2.273 12.501-.378 16.668 1.894 4.167 3.409 9.849 4.545 13.637 1.137 3.788-.379-3.03 0-9.47.379-6.44 2.273-8.713 4.167-14.774 1.894-6.06 3.41-13.637 3.41-13.637s4.166 10.607 2.651 14.395c-1.515 3.788-.758 10.606-.379 13.258.379 2.652 1.894 7.955 1.894 1.137 0-6.819-.757-13.259.379-14.774 1.136-1.515 3.788 9.85 4.167 5.682.379-4.167-2.652-.379-1.137-11.743 1.516-11.364 2.273-18.94.38-27.274-1.895-8.334.378-10.228.757-15.152.379-4.925-1.137-10.228-1.894-11.743-.758-1.515-1.137-1.894-.758 3.03.38 4.925 3.41 10.228.758 12.122-2.652 1.894-5.303 4.925-4.925 6.819.38 1.894-1.136 5.682-1.515 3.788-.379-1.894-4.167-6.44-2.273-10.986 1.894-4.545 4.546-9.47 2.652-12.88-1.894-3.408-.758-7.197-3.41-9.47-2.651-2.272-6.06-9.09-6.06-9.09zm-7.178-8.773s1.875 3.75 3.482 4.554c1.607.804 6.964 2.679 9.107 3.214 2.143.536 7.768.804 7.768.804s1.875 3.75 1.875 5.357c0 1.607.803 0 1.071-1.34.268-1.339 2.679-2.142 4.554-3.75 1.875-1.606 2.143-2.946 1.071-2.678-1.071.268-1.339.268-2.946 1.875-1.607 1.607-2.41 4.018-2.679 2.41-.268-1.606.804-4.017-1.607-3.75-2.41.269-16.34-1.338-21.696-6.696zm54.196 52.947s-4.821-.268-4.821 1.34c0 1.606.268 4.017-1.34 5.356-1.607 1.34-6.964 4.286-7.767 5.625-.804 1.34-5.625 8.036-4.554 7.232 1.071-.803 6.16-4.285 7.768-5.625 1.607-1.339 3.214-2.946 6.16-3.482 2.947-.535 6.43-2.678 6.43-2.678s-2.68.268-4.822.268c-2.143 0-4.286-.268-2.947-1.34 1.34-1.071 2.947-2.41 3.215-3.214.267-.804 2.678-3.482 2.678-3.482zm-8.571 15.536c-1.875 1.071-2.411 1.607-4.286 3.482-1.875 1.875-4.821 3.75-3.482 4.018 1.34.267 2.143-1.608 4.821-4.018 2.679-2.411 2.947-3.482 2.947-3.482zm4.232 60.75c-1.894 1.516-4.925 1.894-6.44 3.41-1.515 1.515-.379 2.272-.379 2.272s1.516-.378 0 1.516c-1.515 1.894-1.894 4.545-3.03 6.44-1.137 1.893-.758 4.166 2.273 0 3.03-4.167 7.197-5.683 4.924-6.061-2.273-.38-4.924.378-2.273-2.273l4.546-4.546zm-23.865 28.032c0-1.136-1.515-10.985 1.894-17.804 3.41-6.818 1.894-11.743-.379-16.289-2.273-4.545-4.545-5.303-4.167-2.272.38 3.03 2.652 10.606.38 15.91-2.274 5.303-5.683 6.818-5.304 12.5.379 5.682.379 6.061 0 10.607-.379 4.545-1.515 14.016-3.03 9.849-1.516-4.167-4.546-7.576-3.031-12.5 1.515-4.925 0-4.168.758-11.365.757-7.197 1.136-13.637 0-12.5-1.137 1.136-1.516 6.439-2.652 3.03-1.137-3.41-2.652-.38-3.788-4.925-1.137-4.545-3.03-14.016-7.198-15.152-4.166-1.136-6.44-1.894-8.333-4.167-1.894-2.273-5.304-3.03-8.334-7.576-3.03-4.546-6.44-5.303-6.819-8.334-.378-3.03.38-7.576 2.273-5.303 1.894 2.273.758 4.167 3.03 6.44 2.274 2.272 2.652 3.03 4.168 3.409 1.515.379.757-3.03.378-3.788-.378-.758 1.137-1.137 3.03 2.273 1.895 3.409 3.41 7.197 7.198 8.333 3.788 1.137 8.334 7.955 9.85 7.577 1.514-.38 4.545.757 3.03-2.652-1.516-3.41-.38-3.41 1.515-.379 1.894 3.03 3.788 6.819 6.44 6.44 2.651-.379 7.955-3.03 8.712-6.44.758-3.41 1.894-6.44 1.894-5.682s1.894 7.955 3.41 18.94c1.515 10.986-1.516 21.592-2.273 24.623-.758 3.03-2.652 7.197-2.652 7.197zm-28.41 22.35c-3.031-1.894-4.546-6.819-9.47-9.85-4.925-3.03-11.744-10.227-12.123-9.09-.378 1.136 1.894 4.166.758 4.924-1.136.757-5.303 0-3.03 1.894 2.272 1.894 6.44 2.652 9.091 3.788 2.652 1.136 1.894 9.47 6.818 10.985 4.925 1.516 11.365 9.85 9.85 5.304-1.516-4.546-1.895-7.955-1.895-7.955zm60.987 16.288c-.757-1.894-1.894-1.515-3.788-.378-1.894 1.136-1.515 1.136-3.788 3.409-2.273 2.273-6.06 4.167-3.788 3.41 2.273-.758 3.03 1.893 0 3.408-3.03 1.516-3.03 1.894-4.924 5.304-1.894 3.409-.758 3.788 1.515 1.515 2.273-2.273 4.546-4.546 6.818-7.197 2.273-2.652 6.061-5.304 4.167-2.652-1.894 2.652-3.788 4.924-3.03 5.682.757.758 2.652-1.515 4.546-4.546 1.894-3.03 2.272-7.955 2.272-7.955zm-25-11.743c-.758-5.303-4.547-14.394-5.304-10.606-.758 3.788-1.894 4.167-2.273 10.228-.379 6.06-.758 9.849-1.894 10.227-1.136.38-.379-3.03-3.03-3.788-2.652-.757-.38-3.409-4.546-7.576-4.167-4.167-6.44-6.818-7.955-5.682-1.515 1.137 1.136 4.167 2.273 6.44 1.136 2.273 4.167 6.06.757 4.167-3.409-1.894-7.576-3.788-4.924-1.137 2.651 2.652-.758.38 2.651 4.925 3.41 4.545 3.03 6.818 1.137 9.091-1.894 2.273-3.41 0-.758 5.682s4.925 6.061 4.546 10.607c-.379 4.546-1.515 7.576-1.136 9.47.378 1.894-6.44-.758-8.713-4.924-2.273-4.167-4.546-3.03-3.03.378 1.515 3.41 6.06 3.788 5.682 9.47-.38 5.683-1.894 8.713 0 12.122 1.894 3.41 3.03 4.546 3.788 1.894.757-2.651-.38 5.682 3.409 1.137 3.788-4.546 3.03 3.788 5.682-3.788 2.652-7.576 5.303-15.153 6.061-8.713.758 6.44 0 9.85 2.652 12.5 2.651 2.652 5.303 7.577 4.167 3.031-1.137-4.545-5.304-6.44-2.273-10.606 3.03-4.167 4.545-10.607-1.137-15.531-5.682-4.925-5.682-4.167-6.44-8.713-.757-4.546-2.272-10.607-1.136-11.743 1.137-1.136 4.167-1.515 4.925 3.41.757 4.924.378 10.227 2.651 10.227 2.273 0 1.894-.758.758-6.06-1.137-5.304 1.136-3.789 1.136-9.092 0-5.304 2.273-17.047 2.273-17.047z"
            style="stroke-width:1;" />
         <path class="dark-fill" style="stroke-width:1.5;"
            d="M88.74 466.649c-.855.995-1.747 1.961-2.624 2.937-.304-1.01-.607-2.02-.907-3.03-4.332-.355-8.176-.53-11.718-1.5-2.51-.718-5.811-2.5-8.438-4.095-2.626-1.594-5.031-2.39-5.031-2.39s1.573 2.046 4.25 3.672c2.677 1.625 5.987 3.451 8.781 4.25 5.04 1.44 10.217 1.524 11.031 1.53.45 1.521.899 3.042 1.344 4.563 1.413-1.556 2.814-3.123 4.219-4.687 1.928-.638 4.409-2.219 4.836-4.28-1.869 1.283-3.933 2.347-5.742 3.03zm-53.312 17.187c3.164-1.37 6.469-4.178 5.719-9.187-.75 4.366-3.45 6.54-6.313 7.781-2.863 1.24-5.75 2.156-5.75 2.156s3.18.621 6.344-.75zm21.684.768-1.252 1.442c2.246 1.431 8.537 11.052 11.365 9.103-4.044-1.376-6.797-7.253-10.113-10.545zm-.621 30.232-1.032 1.063 5.438 4.406zm42.388 4.746-1.165-.067-.054 8.585c.958-2.972.9-5.706 1.22-8.518zm-.449 30.887 1.31-.851c-.087-2.414-.65-4.351-1.473-5.426zm-64.408 3.336c2.457-1.304 5.077-3.727 4.531-7.844-.924 3.46-3.035 5.373-5.219 6.532-2.183 1.158-5.857 1.383-5.857 1.383s4.088 1.233 6.545-.07zm21.174 1.384-1.473.888c2.59 2.93 4.307 5.398 6.815 5.603-1.636-2.146-3.068-3.12-5.342-6.491zm-.66 30.022-.827 1.165 5.672 5.788c-.58-2.564-2.573-4.998-4.846-6.953zm46.437 4.902h-1.5c.31 2.05-1.411 10.483 1.33 10.442-.975-3.124.189-6.932.17-10.442zm-.563 30.84 1.366-.92c.316-2.074-.568-4.78-1.488-5.51zm-65.607-.46c-.87 1.264-2.152 2.094-3.5 2.625-2.695 1.06-5.64 1.625-5.64 1.625s3.122.962 6.203-.25c1.54-.607 3.072-1.58 4.156-3.157 1.084-1.576 1.674-3.709.625-6.422-.48 2.59-.974 4.314-1.844 5.579zm18.625 5.937-1.236.518c5.307 6.208 7.914 6.476 11.63 9.18-3.22-5.019-7.224-5.287-10.394-9.698zm-1.531 28.438-.938 1.156s2.418 2.699 6.933 4.22c-3.328-3.245-5.995-5.376-5.995-5.376zm51.031 5.156-1.5-.094v9.906c.93-3.27 1.278-6.541 1.5-9.812zm-.59 31.835.965-.804c.262-3.766-.439-6.971-1.687-8.826z"
            transform="matrix(.08142 0 0 .10212 12.64 -36.833)" />
         <path class="darker-fill" style="stroke-width:1;"
            d="M66.928 481.774c.247-.904.524-1.892.656-2.906 0 0 .816-1.87 1.625-4.094.81-2.225 1.625-4.742 1.125-6.281-.5 1.139-1.264 3.742-2.062 5.937-.41 1.13-.51 1.348-.813 2.094-.792-3.247-4.078-5.344-4.078-5.344s2.776 3.03 3.266 5.969c.242 1.451-.247 2.843-.656 4.344-.41 1.5-.722 3.15.61 4.687-.277-1.677-.067-2.96.327-4.406zm19.469.5c.464 2.252.847 5.034.594 7.062-.262 2.092-.783 3.67-1.125 4.97-.171.649-.303 1.214-.313 1.78-.01.567.11 1.133.86 1.344.214-.592.133-.891.14-1.312.007-.422.118-.94.281-1.563.328-1.246.882-2.9 1.157-5.094.282-2.257-.152-5.105-.625-7.406-.474-2.301-1.485-3.906-1.485-3.906s.052 1.872.516 4.125zm-36.469 7.5c-1.355-3.794-2.596-5.609-3.89-6.14.447 1.074 1.629 2.746 2.953 6.452 1.347 3.773 2.426 5.973 3.187 7.219.381.623.66 1.006.86.36-.728-2.056-1.779-4.164-3.11-7.891zm-3.031 7.937c.745 1.083 1.56 2.164 2.344 3 .783.836 1.474 1.5 2.343 1.5.39 0 1.14.222 1.97.563.827.34 1.763.786 2.624 1.25 1.722.927 3.453 1.453 3.453 1.453s-1.224-1.38-2.984-2.328a30.55 30.55 0 0 0-2.719-1.313c-.88-.362-1.662-.625-2.344-.625-.202 0-.902-.416-1.625-1.187-.723-.771-1.521-1.815-2.25-2.875-1.457-2.12-3.093-4-3.093-4s.792 2.396 2.281 4.562zm68.969 23.282c-3.064-.891-4.93-.197-6.407.437.946-1.562 1.86-3.315 1.594-5.25.387 4.834-5.703 6.604-7.087 9.888 3.928-2.721 8.18-4.997 11.9-5.075zm-37 37.312c-.393-2.487-.527-6.178.531-10.937 2.15-9.68 2.694-17.262 1.656-26.907.034 9.642-.49 17.081-2.625 26.688-1.085 4.883-.942 8.71-.531 11.312.41 2.603 1.547 3.782 1.547 3.782s-.186-1.451-.578-3.938zM61.24 524.227s-4.532 3.356-1.61 14.453c-.56-6.85 1.61-14.453 1.61-14.453zm27.625 28.703c.785 2.946 1.34 7.44.281 13.531-2.15 12.362-2.719 27.407-2.719 27.407s1.006-5.717 1.781-12.72c.462.762 1.073 1.91 1.688 3.876.982 3.142 1.631 7.73.312 13.531-2.694 11.857-1.656 21.563-1.656 21.563s-.037-9.599 2.625-21.313c1.36-5.984.683-10.776-.344-14.062-1.026-3.286-2.176-7.245-2.176-7.245.23-2.12.695-6.496 1.458-10.88 1.083-6.23.54-10.857-.282-13.938-.821-3.081-2.343-4.36-2.343-4.36s.59 1.664 1.375 4.61zm-33.282 16.781c-.616-1.027-1.709-2.67-3.593-5.093-.827-1.063-1.67-1.75-1.585-2.414.085-.664-.186-2.075-.665-3.649-.48-1.574-1.153-3.215-2.438-3.797.323 1.026 1.01 2.572 1.469 4.078.45 1.48.71 2.942.719 3.344-1.051-.813-2.063-1.406-2.907-1.687-1.496-.5-2.562-.344-2.562-.344l.156 1s.778-.126 2.094.312c1.316.439 3.118 1.442 4.937 3.782 1.866 2.398 2.911 3.986 3.5 4.968.59.982 1.172 1.157 1.172 1.157s.32-.63-.297-1.657zm-5.968 2.125c-1.668-1.868-2.968-3.436-3.922-3.687.117.82 1.491 2.462 3.172 4.344 1.68 1.882 3.717 4.052 5.953 5.296-1.514-1.97-3.535-4.085-5.203-5.953zm19.75 39.532c.399-1.997.937-4.337 1.093-6.434 0-.679 3.527-4.298 4.172-8.395-1.472 3.317-4.34 5.323-4.484 5.422-.418-4.878-2.484-8.093-2.484-8.093s1.64 4.384 1.64 10.156c0 2.886-.533 5.135-.937 7.156-.405 2.022-.696 3.848.36 5.703-.018-1.894.24-3.52.64-5.515zm-28.688 18.875c1.683.269 3.595.53 4.956 2.105 1.361 1.574 1.456 3.337 1.732 4.988.584 3.508 4.218 4.735 4.218 4.735s-2.763-1.97-3.25-4.89c-.26-1.564-.312-3.314-1.39-5.29-1.079-1.976-1.52-3.417-2.172-5.18-.677-1.827-1.498-3.842-2.828-4.453.277.996 1.228 3.008 1.89 4.797.521 1.406.729 2.17.875 2.656a41.538 41.538 0 0 1-3.875-.437c-1.665-.267-3.156-.063-3.156-.063s1.318.762 3 1.032zm36.438 14.375c.72 1.539 1.294 3.259 1.437 4.906.143 1.647-.135 3.202-1.125 4.562-2.266 3.117-1.815 6.684-1 9.875s1.936 6.133 1.953 8.11c1.09-2.31-.192-5.256-.984-8.36-.792-3.103-1.176-6.254.844-9.03 1.153-1.587 1.47-3.433 1.312-5.25-.158-1.82-.778-3.611-1.531-5.22-1.506-3.216-3.922-5.36-3.922-5.36s1.575 2.689 3.016 5.767zm10.062 6.75c.542-2.235 1.074-5.208.844-8.75-.766 3.421-1.283 6.314-1.813 8.5-.53 2.185-1.089 3.678-.859 4.343.766-.406 1.286-1.859 1.828-4.093zm26.938 16.625c-.521.846-.375 1.406-.375 1.406s.668.02 1.218-.875c.551-.895 1.36-2.386 1.985-5.016-1.518 2.192-2.308 3.638-2.828 4.485zm-49.563 35.656c-1.107-2.019-1.981-4.587-1.25-6.781.881-2.643-.255-5.43-1.562-7.563-1.062-1.733-1.901-2.534-1.698-4.24.204-1.704.65-3.885.65-3.885s-1.391 1.846-2.171 4.865c-.78 3.019-1.212 5.842-.438 8.166 1.534 4.6.485 11.078.485 11.078s2.134-6.379.453-11.421c-.588-1.763-.309-4.071.156-6.25.527.593.9.903 1.688 2.187 1.237 2.02 2.226 4.571 1.5 6.75-.876 2.627.142 5.43 1.312 7.563 1.17 2.133 2.906 3.312 2.906 3.312s-.924-1.763-2.03-3.781zm22.438 7.281c-.491.916-1.009 1.732-.985 2.64.811-.363 1.346-1.18 1.86-2.14.73-1.362 1.251-3.11 1.5-4.969.401 1.174.775 2.338 2.406 5.266-.247-2.08-.853-3.754-1.305-5.023-.544-1.528-.864-2.469-1.383-2.477-.246 2.58-1.112 4.871-2.093 6.703z"
            transform="matrix(.08142 0 0 .10212 12.64 -36.833)" />
      </g>
      <g id="right-leg" style="stroke-width:4.74694;">
         <path transform="matrix(-.07451 .03649 .0317 .08576 28.308 -25.17)"
            d="M238.566 558.827c-3.023 2.985-6.544 5.253-9.393 2.93 7.103-4.745 3.59-4.45 5.375-10.25.125-.626-.25-1.25-.25-1.25-4.007.638-4.6 4.475-8.375 3.75 3.153-2.353 4.018-6.013 3.75-9.626-2.448 2.365-4.114.558-5.875 1.125 1.01-.921 2.166-1.9 3.024-3.03.764-1.264 1.7-2.941 1.397-4.315-.077-.311-.297-.63-.796-1.03-1.25-1-1.25.5-1.25.5-.03 4.062-1.92 5.892-5.698 5.59 4.546-2.41 1.882-2.936 1.823-6.34-.269-3.511-2.825-4.775-6-5.25-4.763-.47-7.725-.673-11.544-.493-4.698.456-3.606-.02-6.11-4.417l-2.47-4.34 5.374-10.75 19.144-14.608c16.144 5.536 35.255 2.603 46.685 14.745 5.303 6.187 8.131 10.96 10.253 23.158 2.12 12.197 10.076 15.91 10.076 15.91s-5.303 2.12-12.198-6.895c-6.894-9.015 2.122 5.303 3.182 5.48 1.06.177-4.42.53-7.778-4.773-1.872 2.625 2.734 4.897 4.713 6.38-7.46-.71-6.852-2.864-8.425-5.85a14.003 14.003 0 0 1-.884-1.767v2.828c.257 3.587-1.862 4.253-.465 7.16 1.526 3.119 5.262 8.743 13.723 13.523 6.316 4.056 13.869 7.343 18.194 4.853 7.206-4.148 7.196-3.03 10.267-2.732l2.652.708 1.59 1.59.178 1.061s0 1.238-1.591 2.122c-1.591.883-2.122 4.242-3.713 4.419-1.59.177-2.485 3.103-4.607 4.163-2.121 1.06-.651 10.2-.651 10.2l-1.414.885-.884-1.06-1.414 1.59c-1.503-.31-3.925-.596-4.596-1.237a5.345 5.345 0 0 1-1.061-1.591c.429 1.23-1.834 2.885-.707 5.126-.884-.353-2.298-1.59-2.298-1.59-4.11-3.73-2.285.204-1.061 1.413-2.262-.495-3.67-1.148-5.48-2.828-2.143.489 2.036 3.454.702 2.89-3.836-1.44-4.084-2.183-4.712-5.249-.114 2.412-3.942 4.632-5.088 3.514.237-1.205-.978-2.57-2.393-2.216-2.544.566-4.291 2.057-4.773 2.298-3.133 2.048-5.38.147-7.6.53l2.65-2.12c-1.407-.287-2.702-.177-3.181-.177-2.856 0-2.735-2.513-2.735-2.513 1.943 1.093 3.133 1.183 3.795.568 0 0-5.729-8.32-10.651-8-3.066.306-8.406 1.03-11.815-2.522 9.582-.37 7.65-4.931 6.865-7.377-3.375 6.179-7.255.831-10.269 1.57 1.697-3.486 6.54-.522 9.4-7.079.04-.412.08-1.601-1.428-1.391-2.624 1.14-3.72-.607-7.367.732.719-1.233.07-2.849 2.542-3.582 2.162-.56 2.906-3.644 1.646-5.063z"
            class="flesh" />
         <path class="light-fill"
            d="m377.813 524.813-4.188 8.812-3.063.625c-8.838 1.052-20.823 2.968-28.843 5.375-6.118 1.836-9.97 4.309-12.719 7.188-5.123 5.9-7.86 10.443-9.969 22.125-2.109 11.681-9.75 15.187-9.75 15.187s4.757 1.917 11.125-5.813c.02-.019.042-.043.063-.062.642-.615 1.327-1.428 2.062-2.531.03-.046.063-.078.094-.125 3.147-3.653-3.813 7.105-4.719 7.25-1.018.163 4.247.533 7.5-4.532 1.779 2.529-2.656 4.683-4.562 6.094 7.156-.635 6.598-2.71 8.125-5.562.221-.364.386-.704.531-1 .092.131.216.303.312.468v1.563c-.268 3.437 1.764 4.065.407 6.844-1.483 2.98-5.108 8.344-13.25 12.875-6.081 3.85-13.338 6.976-17.469 4.562-6.884-4.021-6.898-2.955-9.844-2.687l-2.531.656-1.531 1.531-.188 1s-.02 1.205 1.5 2.063c1.52.857 2.007 4.07 3.531 4.25 1.525.179 2.38 3.001 4.407 4.031 2.027 1.03.562 9.781.562 9.781l1.344.844.844-1 1.375 1.531c1.442-.287 3.758-.546 4.406-1.156.682-.674 1.031-1.531 1.031-1.531-.419 1.176 1.72 2.764.625 4.906.85-.334 2.219-1.5 2.219-1.5 3.962-3.55 2.181.223 1 1.375 2.1-.446 3.46-1.045 5.125-2.531l.312-.094c1.631.603-2.086 3.235-.843 2.719 3.686-1.356 3.94-2.096 4.562-5.031.094 2.313 3.737 4.47 4.844 3.406-.22-1.156.959-2.442 2.312-2.094 2.437.558 4.103 1.984 4.563 2.219 2.992 1.982 5.155.18 7.281.562-1.33-1.078-1.72-1.397-2-1.625.06-.175.121-.325.188-.53 1.048-.117 1.97-.035 2.343-.032 2.739.017 2.625-2.406 2.625-2.406-1.87 1.036-2.993 1.124-3.625.53 0 0 5.533-7.962 10.25-7.624 1.935.205 4.82.603 7.5-.125a.452.452 0 0 0 .282-.094c1.284-.39 2.518-1.05 3.562-2.125-5.547-.249-7.03-1.934-7.187-3.75.083-.137.042-.318-.031-.5.036-.965.366-1.914.625-2.687.066.012.12.015.187.03 3.171 5.605 6.869.657 9.719 1.376-.884-1.846-2.695-1.842-4.594-2.5-2.575-1.68-3.889-3.248-4.406-4.469-.024-.46.074-1.413 1.406-1.219 2.509 1.11 3.542-.556 7.031.75-.682-1.186-.04-2.72-2.406-3.437-1.65-.44-2.401-2.409-2.031-3.875.299.065.18-.124.093-.313.038-.096.076-.192.125-.28.151-.011.463.07.97.25 2.715 2.531 5.752 4.254 8.28 2.218-3.36-2.277-4.213-3.349-4.437-4.531-.002-.01.002-.021 0-.032.103-1.103.133-2.874-.406-6.03.231-.328.531-.595.531-.595 3.838.638 3.876 4.455 7.5 3.782-5.2-5.643-4.302-9.957 2.062-8.157-.962-.89-2.059-1.818-2.875-2.906-.297-.5-.584-1.07-.843-1.656-.074-.84-.18-1.574-.407-1.875-.073-.123-.088-.271-.093-.406-.002-.043.027-.082.031-.125.006-.031-.007-.064 0-.094.075-.298.3-.59.781-.969 1.205-.95 1.188.469 1.188.469.005 3.895 1.813 5.673 5.437 5.406-3.954-2.128-2.187-2.73-1.781-5.281.04-.251.056-.52.062-.813.28-3.365 2.735-4.563 5.782-5 4.57-.421 7.432-.602 11.093-.406 4.502.466 3.448.013 5.875-4.187l-17-36.75zm-29.75 22.78c7.007-.086 10.373.684 14.625 3.313-9.818 9.234-8.452 24.332-5.75 37.532-1.109-.226-1.504.204-2.282-.625-5.298-1.113-2.909 9.143-.25 8.968-1.412.47-1.032.84-2.312.219-1.356-.658-3.086-.866-3.188-.594-.799 2.136-1.855 6.599 2.156 8.282-1.941-.453-4.705-.857-5.187.218-2.238 4.992-.403 4.591 1.281 6.719-3.393 1.68-10.414 2.705-15.375 11.156-2.107-1.95-4.094-2.746-7.312-2.531-1.28.32-2.487.699-2.656 1.906-1.569.026-2.604-4.08-3.344-5.343l-2.375 4.937-1.219-1.938-2.281 2.407-.563-.719-1.469-2.531-2.968 2.5-1.813-3.5-3.469 3.343c.888-1 1.423-4.374-2.093-3.25 3.654-1.983 1.88-7.303-3-6.53 2.82-.757 3.067-2.363 2.156-3.376 9.51 3.48 19.188-3.535 28.719-10.843 2.754-1.804 4.496-5.996 6.531-8.72.845-1.324.666-6.614-.094-7.937-2.383-4.152-2.138-8.243-2.281-11.218l-4.031 6.437c-.34-.424.445-2.602.781-3.656-.603.143-1.88.514-2.812 1.718.104-1.632-.077-2.21-.313-3.156-1.065-.48-2.459.738-2.937 1.063l-1.5 1.187c12.533-11.892 5.896-18.577 17.5-23.531 3.092-1.29 5.835-1.68 9.125-1.906zm3.406 65.626c.462.206.987.386 1.562.562-.641-.082-1.147-.275-1.562-.562z"
            transform="matrix(.0775 -.03863 .03356 .0892 -19.259 -7.58)" />
         <path
            d="M370.204 666.75c-16.631 9.897-12.637 14.825-8.8 83.559-12.163 5.333-15.928 12.7-18.164 35.866l-15.857 44.947c-16.408.985-25.873 6.889-31.435 18.631-11.78-.883-15.952-.396-26.567-.913 34.988-7.778 49.374-30.81 63.076-56.877 21.776-65.653-12.872-73.015-3.643-103.97 8.423-24.705 24.67-20.88 41.39-21.243z"
            class="white" transform="matrix(.0248 -.01133 .00984 .02855 10.983 13.41)" />
         <path class="none outline" style="stroke-width:4.74694;"
            d="M384.056 784.782c9.392 8.831 20.242 15.447 28.708 8.186-21.897-13.86-11.217-13.23-17.067-30.691-.426-1.887.665-3.81.665-3.81 12.204 1.639 14.287 13.235 25.684 10.75-9.74-6.899-12.636-17.937-12.092-28.916 7.603 6.992 12.521 1.384 17.905 2.975-3.133-2.72-6.712-5.605-9.399-8.967-2.41-3.776-5.375-8.795-4.557-12.985.209-.95.853-1.936 2.336-3.183 3.717-3.126 3.829 1.424 3.829 1.424.397 12.32 6.262 17.728 17.7 16.53-13.967-6.97-5.926-8.765-6.002-19.094.556-10.672 8.215-14.694 17.81-16.372 14.414-1.782 23.383-2.617 34.983-2.355 14.284 1.032 10.934-.33 18.202-13.855l7.173-13.348-17.105-32.208-59.16-42.887c-48.557 17.995-106.746 10.52-140.512 48.204-15.627 19.163-23.85 33.851-29.377 71.01-5.526 37.157-29.38 49.01-29.38 49.01s16.244 6.04 36.486-21.82c20.242-27.862-6.04 16.244-9.244 16.86-3.204.615 13.445 1.279 23.239-15.058 5.873 7.823-7.928 15.056-13.82 19.705 22.573-2.71 20.57-9.201 25.12-18.373 1.543-2.72 2.55-5.428 2.55-5.428l.21 8.58c-.511 10.898 5.964 12.762 1.944 21.685-4.397 9.572-15.31 26.911-40.62 42.041-18.858 12.775-41.523 23.306-54.828 16.076-22.169-12.046-22.055-8.658-31.348-7.521l-7.99 2.342-4.708 4.944-.458 3.231s.092 3.754 4.984 6.316c4.892 2.563 6.751 12.712 11.59 13.13 4.84.417 7.772 9.226 14.285 12.285 6.514 3.06 2.735 30.894 2.735 30.894l4.356 2.576 2.602-3.283 4.409 4.72c4.534-1.05 11.861-2.1 13.85-4.095 2.092-2.198 3.098-4.905 3.098-4.905-1.21 3.762 5.778 8.616 2.527 15.498 2.655-1.138 6.853-4.997 6.853-4.997 12.185-11.617 6.945.45 3.322 4.21 6.825-1.67 11.049-3.755 16.413-8.987 6.538 1.322-5.92 10.629-1.914 8.816 11.529-4.65 12.224-6.925 13.903-16.27.523 7.306 12.3 13.755 15.696 10.279-.81-3.636 2.775-7.866 7.09-6.899 7.762 1.527 13.173 5.92 14.65 6.616 9.657 5.977 16.335.045 23.098 1.043l-8.202-6.238c4.25-.973 8.186-.737 9.64-.773 8.663-.213 8.108-7.826 8.108-7.826-5.813 3.461-9.417 3.821-11.47 2.007 0 0 16.758-25.666 31.714-25.06 9.321.698 25.575 2.497 35.65-8.532-29.092-.405-23.57-14.388-21.373-21.866 10.697 18.492 22.068 1.982 31.267 4-5.408-10.448-19.878-1.1-29.042-20.774-.15-1.248-.359-4.852 4.23-4.327 8.045 3.263 11.236-2.117 22.401 1.673-2.273-3.686-.427-8.638-7.98-10.677-6.598-1.54-9.085-10.838-5.367-15.236z"
            transform="matrix(.0248 -.01133 .00984 .02855 10.983 13.41)" />
         <g id="right-foot-claw" style="stroke-width:1.32586;">
            <g style="stroke-width:1.45845;">
               <path
                  d="M141.81 460.322c.202-1.028-1.139-1.641-2.339-1.641-1.148 0-3.24 1.084-2.706 2.03 1.08 2.293.376 4.799-.661 6.962 3.459-.985 5.44-3.886 5.706-7.351z"
                  class="flesh outline" style="stroke-width:1.45845;"
                  transform="matrix(-.05433 -.078 -.06777 .06253 63.508 18.501)" />
            </g>
            <g style="stroke-width:1.45845;">
               <path
                  d="M141.81 460.322c.202-1.028-1.139-1.641-2.339-1.641-1.148 0-3.24 1.084-2.706 2.03 1.08 2.293.376 4.799-.661 6.962 3.459-.985 5.44-3.886 5.706-7.351z"
                  class="flesh outline" style="stroke-width:1.45845;"
                  transform="matrix(-.05433 -.078 -.06777 .06253 62.226 17.295)" />
            </g>
            <g style="stroke-width:1.45845;">
               <path
                  d="M141.81 460.322c.202-1.028-1.139-1.641-2.339-1.641-1.148 0-3.24 1.084-2.706 2.03 1.08 2.293.376 4.799-.661 6.962 3.459-.985 5.44-3.886 5.706-7.351z"
                  class="flesh outline" style="stroke-width:1.45845;"
                  transform="matrix(-.05433 -.078 -.06777 .06253 63.09 18.034)" />
            </g>
            <path
               d="M136.165 459.276c.184-.935-1.035-1.492-2.126-1.492-1.044 0-2.946.985-2.46 1.845.982 2.085.342 4.363-.601 6.33 3.145-.896 4.945-3.533 5.187-6.683z"
               class="flesh outline" style="stroke-width:1.32586;"
               transform="matrix(-.05976 -.0858 -.07455 .06878 66.123 15.505)" />
         </g>
         <path id="right-foot-toes"
            d="M176.684 838.79s-.067 1.503.298 2.11c.368.604 1.725 1.209 1.725 1.209 4.983-4.251 14.532-5.968 21.342-7.452-4.374-1.773-13.59-1.033-23.365 4.133m10.361 15.597s-.067 1.504.298 2.11c.369.604 1.725 1.21 1.725 1.21 4.984-4.252 14.532-5.969 21.342-7.453-4.373-1.773-13.589-1.033-23.365 4.133m10.135 19.345s.203 1.492.67 2.023c.47.529 1.913.882 1.913.882 4.146-5.07 13.236-8.46 19.673-11.134-4.62-.966-13.556 1.404-22.255 8.23"
            style="stroke-width:1.18134;" transform="matrix(.0248 -.01133 .00984 .02855 10.983 13.41)" />
      </g>
      <path id="left-forearm" class="flesh"
         d="M205.773 531.671s-12.069 6.262-14.874 17.182c-7.364-1.838-9.69 9.55-12.794 10.68-3.105 1.131-30.604 12.238-33.446 12.273-7.6.094-8.886-3.297-8.886-3.297l-3.9-7.719c-.799-2.407-1.234-2.122-.873-3.173l-.438-2.299-1.379-.375c-.766-.208-1.628-.268-1.628-.268l-2.646 2.068-.583 2.145.767 2.018-1.962 1.77-.486 1.185-.222 1.42 1.17 1.141-.876 1.407-1.126 2.327.35 1.74.362 1.086-1.307 1.784.014 1.156 1.576 2.074-.877 1.407-.039 3.774c.99 3.033 3.917.318 4.987 1.027.942 1.047.901 2.358 1.2 3.452.612 1.389 2.045 1.116 3.19.374 6.528-3.224 9.422 4.404 13.884.978 1.326 2.482 3.423 2.553 3.692 2.156-1.393-2.468 1.634-3.746 3.826-3.322 0 0 1.897 1.498-.149 4.322 0 0 1.533.417 2.159-.071.626-.488 1.294-1.13 1.503-1.895.208-.766-.155-1.852.583-2.145a9.383 9.383 0 0 1 1.434-.433c-.274 3.99 2.758 2.529 4.127 7.21.755-3.796 1.12-5.246 4.006-7.467 0 0 .32-.57.682.515.34 3.649 2.299 4.058 4.113 6.055 1.13 1.294 1.464 1.879 1.464 1.879.713-1.702.104-3.04.118-4.736.032-2.344 1.16-4.432 1.769-4.624.89-.251 1.642-1.199 1.475-.586-.987 4.014 1.456 7.534 4.296 8.408-.303-.766-.316-2.419 1.821-4.277 2.68-.513 1.918 3.081 5.95 4.745-2.71-2.33-.906-10.837 3.293-10.294.55 1.505-.728 3.525-.728 3.525.74.094 1.985-.537 2.43-1.968l.823 4.889s-.493-3.714 1.547-5.69c.174 1.672.367 2.428 1.528 2.248-.842-6.167 4.146-2.634 9.125-14.796-.054 2.421-1.286 6.131.633 8.564-.195-2.278 3.529-6.037 6.487-7.304 2.29-.406 2.296-.141 2.443-1.627-.558-1.2.675-1.938 1.145-1.494.738-.398.054 3.196 2.538 5.792-.654-4.597 1.175-3.767 1.554-8.134-.093-1.178 1.038-2.35 2.519-2.606-2.143 2.922-1.23 8.403.13 6.782-.088-1.094.136-2.089.499-3.042.955-3.336 3.548-5.423 5.396-8.005 1.051-1.485 1.616-2.907 1.889-4.641.187-1.194.394-2.522.367-4.136"
         transform="matrix(.08446 0 0 .0972 10.046 -34.555)" />
      <g id="bear-body" style="stroke-width:4.74694;">
         <path class="outline light-fill" style="stroke-width:4.74694;"
            d="M1277.507 454.19c.072-6.567 2.02-12.216 5.993-15.897 8.907-14.826 31.803-20.538 42.599-10.355 11.693 5.768 21.755 27.484 17.891 36.324"
            transform="matrix(.02668 .0006 -.00052 .03071 -4.273 -4.44)" />
         <path class="flesh"
            d="M1372.307 784.036c6.418 5.513 9.537 10.037 19.42 9.72-16.642-12.156-12.832-31.495-12.832-31.495 5.133 8.65 8.857 6.284 13.99 6.798-15.544-12.92-7.343-55.085-14.961-63.87 1.18-4.85-.943-14.695-5.824-31.367 2.585-6.844 4.409-22.315 7.095-29.123 1.399 5.713 11.81 14.36 12.158 7.081-11.415-4.13-8.242-25.39-8.242-25.39 4.592 2.87 5.827 7.148 13.382 5.538 0 0-4.168-7.576-3.498-16.459.417-5.518-.654-12.601-.04-19.78.798-9.334 3.22-18.919 2.898-26.355-.822-6.736 2.749-30.05 1.172-36.462 1.238-20.834-9.88-5.917-15.81-12.105-.293-.523-.571-1.042-.874-1.559 20.925-8.11 19.244 8.93 12.9-20.105-32.137-24.738-19.122-19.174-38.66-2.872-.343-.236-.688-.484-1.036-.717 9.305 1.614 21.114-7.885 8.351-16.271-8.43-5.54-18.483-10.657-21.746-13.267-9.43-2.704-22.845-8.144-41.377-10.618-13.35-1.783-33.026-1.33-38.495-.485-20.909 4.42-23.808 27.974-25.435 26.566-2.047-1.77-6.025 2.87-11.994 4.853-5.128 1.704-13.729.267-16.852 2.412-7.999 5.497-8.586 5.18-14.88 6.083-3.155.453-5.128-1.198-8.067-1.117-3.618.1-3.922.293-6.771 1.856-1.264.599-10.26 14.984 2.37 24.762-2.572.084-3.83 11.034-3.508 15.103.425 5.38 3.836 7.02 3.454 7.414 1.866 3.744 6.472 8.233 14.676 10.306 5.944 1.503 6.7 8.26 10.7 8.935l34.065 7.06c3.176 5.099 6.779 21.871 15.22-1.411l-5.282 2.71c-2.31 4.366-3.388 7.572-6.602 6.722l-11.677.423c9.224-.712 13.854 3.112 25.627 2.201 11.287-.874 30.982 10.737 39.055 14.419-12.09 11.977-3.894-12.406-23.855 1.567-3.434 2.284-11.048 7.69-11.048 7.69 1.163 1.26 1.4.24 4.825.674 8.937-17.86-.495-5.009-7.586 1.123-1.575 1.363-4.232.83-5.197 1.318-7.078 3.568-6.69 4.185-13.893 7.512-4.546 2.1-29.834 4.76-29.834 4.76 2.602 2.42-25.894 2.917-24.008 3.318 0 0-9.842 8.846-20.282 16.976-5.188 4.04-12.172.754-17.122 5.063-3.99 3.474-32.158 31.754-32.158 31.754 4.472 2.102 4.076 11.682 5.498 11.773-6.363 3.449 8.859 4.174 3.708 7.116-17.497 9.992-4.32 38.807-19.985 47.562 3.708.097 19.779-3.598 24.747-5.926-1.003 3.75-1.565 7.558-2.397 11.409 16.59 67.386 57.242 40.813 16.904 118.339 8.298 18.189 16.902 22.31 35.52 41.128 34.26 18.266 73.523 71.307 91.492 101.909-12.879 11.787-18.056 33.305-19.928 48.458 41.764-7.32 21.162-8.819 90.916 6.942 0 0 43.86-81.717 40.865-137.97-.372-6.988-.284-18.451-2.317-24.276-2.09-5.985-2.95-10.958-4.34-15.28-7.592-23.62-6.892-25.978-10.862-45.714-1.347-6.698-.654-21.257 8.665-27.408 4.537 1.85 8.98 5.879 14.662 2.629-1.08-4.108-16.05-11.574-15.06-32.58z"
            transform="matrix(.02668 .0006 -.00052 .03071 -4.273 -4.44)" />
         <path id="tail-hair" class="light-fill"
            d="M1374.097 978.225s11.1 10.43 10.822 13.51c-.87 9.633.529 18.951 1.656 28.908 4.064 25.204 18.13 37.533 34.953 47.922-13.218 5.86-25.21 5.527-39.271 2.477 1.546 3.797 4.14 5.803 7.018 7.324-12.741 2.12-36.067-6.535-37.091-31.736 5.719-28.206 11.973-67.422 18.519-55.483-1.127-2.128 2.766-19.447 3.394-12.922z"
            transform="matrix(.02668 .0006 -.00052 .03071 -4.273 -4.44)" />
         <path id="chest-hair" class="light-fill" style="stroke-width:4.74694;"
            d="M1108.435 766.754c.832-3.851-5.534-12.506-6.456-16.277-8.443-34.5 15.479-70.904 28.72-87.999 8.025-10.36 27.192-19.336 38.597-26.316 26.94-16.485 71.751-25.765 93.932-32.619 14.307-4.42 25.824-1.93 28.254.01 6.401-4.88-12.622 8.198-2.804 5.034 46.15 4.66.18 1.41 15.008 1.596-7.433 1.351 12.515-3.085 5.986-1.798-2.561.505-13.747 7.905-34.384 7.248-30.372 6.225-52.124 12.273-76.812 21.308-12.147 4.446-28.599 10.643-40.343 19.018-28.748 16.72-33.346 28.239-42.611 78.924 20.29-19.89 28.729-13.364 34.75-11.227 3.992-5.448 6.231-12.668 10.14-13.471l2.867 37.86c-10.521-2.635-33.205 1.427-36.413 23.627l-63.326 25.483-46.685 17.883-7.164 1.741c-7.6.727-16.517-1.482-27.551-8.415-4.893-5.216-9.4-10.416-9.37-15.423l-2.193-13.322 27.182 21.478 9.5.5z"
            transform="matrix(.02668 .0006 -.00052 .03071 -4.273 -4.44)" />
         <path id="backbone" transform="matrix(.0843 .006 -.00522 .09702 -.568 -29.108)"
            d="M389.75 381.156c-.05.005-.06.022-.094.031l-5.937.75-3.469.563c7.393-.032 18.454 2.694 26.094 11.125-.297 1.064-.765 2.142-.719 3.375l5.094 2.906c.26.493.51 1.013.75 1.531.118.61.247 1.177.531 1.188.177.428.368.836.531 1.281 1.593 4.4.995 12.197.563 16.844-.403 4.33-1.71 8.695-3.844 12.531-6.413 12.829.33 24.443 1.781 39.031-.101 7.706-6.134 19.097-6 26.313.48 6.083 4.401 14.282 8.281 28.188 2.154 7.717 1.106 10.691.844 16.968.257 2.877-.403 8.64-1.906 14.375-2.079 7.932-2.844 16.188-2.844 16.188 2.841-5.19 4.872-9.587 6.375-13.438 2.064-5.289 2.659-10.305 2.531-14.343 2.168-5.499 1.497-9.57 1-14.657-.886-13.36-7.135-22.127-8.656-33.875-.235-2.764 2.32-8.369 4.031-13.281 7.569-22.478-3.468-26.184-2.625-43.781 4.764-16.925 6.639-29.498 1.157-39.031 7.543-4.026 5.893 9.542 7 17.25 0 0 1.522-11.324.906-12.75-.532-1.233-.202-2.724-.844-3.907-.688-1.269-1.844-5.969-1.844-5.969s-2.695-2.324-5.75-4.187c-.406-.938-1.939-2.576-3.812-4.125-.863-.713-3.406-1.747-3.906-1.938-.883-.335-2.556-4.24-14.75-5.156-.152-.011-.242-.003-.344 0-.037.001-.094-.003-.125 0zm-9.5 1.344c-2.854.012-5.197.426-6.531 1.094z"
            class="light-fill" />
         <path id="breastplate" class="light-fill"
            d="M1125.777 747.87c.564-2.61-9.615 20.598-9.956 17.968-.163-1.252-20.635 9.674-21.123 8.521-4.406-4.093-4.132-15.094-2.644-28.577 2.835-25.68 13.5-60.117 28.664-71.22 14.28-17.01 28.83-23.122 43.343-34.712 22.783-18.194 51.348-30.225 80.681-31.662 3.653-.953 13.039-1.518 13.336-6.962.081-1.488-3.085-5.637-8.41-9-18.52-11.691 53.047-2.904 49.306-.548-3.03 3.315-5.083 3.967-10.036 9.065-5.433 5.591 9.58-2.391 5.265 2.301-5.26 5.721 31.982 15.922.269 20.152 2.925-14.27-19.046-17.331-33.407-19.089 1.453 4.041 1.476 7.165-3.221 9.51-1.98-.617-4.328-.869-7.538-.345-25.568 2.989-49.63 10.202-71.699 23.719-48.203 24.016-81.407 55.355-64.507 117.473.756 2.779 12.989-13.689 13.47-10.636z"
            transform="matrix(.02668 .0006 -.00052 .03071 -4.273 -4.44)" />
         <path id="left-forearm-edge" class="light-fill"
            d="M1138.78 849.855c2.969-5.428 10.37-12.294 17.578-13.694 1.278-.248 3.803 1.744 4.336 2.806.659-1.493 1.835-5.038 3.645-4.877.738-.126 3.452 1.679 3.364 3.173 2.845-2 2.513-3.787 3.383-3.969 1.716-.36 3.645-1.784 4.77-2.352 7.678-3.884 16.68-21.843 21.774-35.278 14.126 3.653.943.638 15.408 3.86-.646 7.652-.245-.888-.99 10.328 2.572-4.334 6.643-4.307 12.277-6.527 2.532-3.143 3.349-6.458 6.209-8.188 10.333-6.25 10.841 4.8 12.766 2.635-3.244-14.685 7.902-18.772 11.843-20.05 23.7-25.552 11.6-29.673 39.55-57.568 3.77 28.513-1.13 61.883-21.197 73.756-2.252 2.394-3.99 4.966-5.234 7.598-2.33 5.008-1.644 10.534-5.705 14.277-4.387 3.961-9.416.504-10.065-3.798-.749 3.325-2.44 9.733-.598 14.752-3.293 2.05-16.39-.869-19.025-6.946-13.7 2.344-21.093 17.34-18.65 25.333-9.776 2.243-17.558.035-16.964-7.794-1.396.526-8.872 4.295-13.34 10.831-1.444 2.112-2.922 7.853-1 9.808-2.002 5.706-7.499 6.988-10.795 3.022-3.27 15.007-.57 1.115-3.946 15.608l-13.909-11.56-2.342-2.033-4.457-4.948c-4.369 2.363 2.218-1.766 2.081 1.625l-3.367-4.31-3.066 19.993c-.7-.307-13.817-14.034-4.335-25.513z"
            transform="matrix(.02668 .0006 -.00052 .03071 -4.273 -4.44)" />
         <path id="stomach" transform="matrix(.0843 .006 -.00522 .09702 -.568 -29.108)"
            d="M345.375 510.125c-.707 5.234-1.09 5.388-1.25 7.094 3.264 3.84 10.158 9.58 16.563 15.781 4.47 4.328 8.626 9.237 11.5 12.406 3.663 5.428 6.197 14.807 5.78 21.188 2.72-2.56 5.356-5.67 7.157-7.344 3.288-4.964 4.06-5.274 5.656-6.969-.512-.894-2.494-2.805-4.312-4.593.71-.866 1.302-1.975 1.594-3.5 1.591-1.909 2.03-4.206-.563-6.75.719 3.647-2.855 6.417-6.719 3.75-8.486-9.35-24.77-19.216-35.406-31.063z"
            class="light-fill" />
         <path id="shoulders" class="white"
            d="M1275.333 631.583c19.55-2.598 96.372-39.99 56.495-27.772m0 0c-16.918 19.176-37.392 42.918-50.084 63.349-14.76 19.717-12.73 28.373-14.6 49.785-.847 9.935-5.892 24.932-11.324 35.915-3.532 7.139-10.185 13.259-18.05 15.383-21.972 5.934-13.477-12.942-21.457-16.54-10.218-4.606-7.072-13.08-20.448-6.348-6.758 3.401-4.348-7.868-4.383-15.414-.045-9.517 16.732-41.79 58.736-59.225-68.667-14.337-88.254 11.114-101.607 41.66-4.338-6.496-13.687-2.066-13.254-3.961 4.317-20.18 22.56-43.14 61.679-55.997 25.146-8.264 52.448-17.237 78.297-20.835"
            transform="matrix(.02668 .0006 -.00052 .03071 -4.273 -4.44)" />
         <path id="shoulder-muscle" class="light-fill"
            d="M1163.272 747.505c2.216-34.274 40.191-69.71 58.924-73.784-18.881-3.164-38.73 6.049-52.45 21.953-9.058 9.937-16.213 21.15-19.548 31.94 3.671-.353 5.011-.198 4.944.86 4.082 1.203 6.99 18.585 8.13 19.03z"
            transform="matrix(.02668 .0006 -.00052 .03071 -4.273 -4.44)" />
         <g id="left-tricep" style="stroke-width:4.66884;">
            <path style="stroke-width:4.66884;"
               d="M1190.166 712.815c4.543-9.647 9.599-22.201 16.984-26.849-3.497.68-12.166 5.221-19.637 23.234zm110.592 33.8 3.522 2.66s6.128-26.062-2.404-39.802c2.191 12.185 2.65 19.607-1.118 37.143z"
               transform="matrix(.02488 .0139 -.01162 .02757 5.653 -18.621)" />
         </g>
         <path id="left-eyebrow" style="fill:#999;"
            d="M1250.103 499.887c18.319-21.564 37.99-20.884 48.789-5.812-19.43-13.821-39.896-6.13-50.769 9.962z"
            transform="matrix(.02668 .0006 -.00052 .03071 -4.273 -4.44)" />
         <path id="chin" transform="matrix(.0843 .006 -.00522 .09702 -.568 -29.108)"
            d="M406.188 394.688c.578.538-.108 3.59 2.937 4.03 2.02 5.782 2.695 19.703-6.125 24.063-3.017 8-18.58 1.335-18.438-8.219-1.603 2.714-1.36 7.85-.812 8.907-1.778-.498-3.275-1.884-5.844-2.313 3.323-7.094.52-12.315-5.406-13.969-.374-.245-.741-.513-1.156-.75.178.198.335.372.5.563.005.006-.005.025 0 .031.304.932-1.113 2.763-.156 3.594 1.047.91 1.849 1.846 2.03 2.844-.052 4.637-3.468 4.46-5.53 4.937-1.064.179-1.46-1.227-4.188-.594-.918.213-1.92-.029-2.906-.468-.499-.223-1.006-1.062-1.469-1.344-1.939-1.18-3.4-2.008-3.063-.938-.075.04-.129.083-.187.125-.352-.08-.628-.53-.781.032-.103.375-2.025 1.011 1 2.28.4 1.57.758 2.474 1.5 3.188l.031.032c.134.26.258.481.406.656.377.446 3.823 1.448 4.531 1.937l2 .125c.033-.05.062-.077.094-.125l3.719.75c.158.264.35.342.625.125l2.219.438 1.656 2.687c1.165.105 1.165-.06 2.5.094 1.217.278 5.86-.441 7.187.313 7.034 2.516 5.287 3.741 5.72 6.093.258.071-.159.76.062 1.625.273 1.072 1.172 2.45 1.218 3.72.053 1.426-.473 2.653-.187 2.718.274.062 1.197-1.617 1.781-3.281.667-1.899.992-3.795 1.25-3.813-.037.32 1.853 1.262 4.281 2.781.352.732.32 2.51.532 2.375 1.484-.938 1.527-3.798 1.156-5.937.073.006.145-.006.219 0 .595.747 1.32 1.525 2 2.094 2.31 1.931 3.815 3.976 3.812 5.312 0 .182.863-2.728.75-4.406-.094-1.394-.98-1.707-1.062-2.969-.008-.118.007-.17 0-.281.29-.051.585-.122.875-.188.638 1.298 1.383 2.703 1.718 2.532.211-.108.417-1.456.25-3.188.978-.494 1.834-1.2 2.563-2.062.098.25.187.403.281.343.337-.214.495-.832.594-1.53 1.155-1.814 1.931-4.09 2.437-6.5.106-.08.216-.155.313-.25-.082-.052-.146-.107-.219-.157.212-1.081.358-2.18.469-3.281.319-.21.616-.394.781-.5.046-.87.273-1.503-.594-2.782.066-2.689-.085-5.195-.375-7.03-.896-5.673-2.05-10.632-7.5-14.47z"
            class="light-fill" />
         <path id="left-jowl" class="white"
            d="M1283.866 528.734c9.05 61.218 88.082 36.167 59.596-5.818-22.345 26.58-37.754 16.267-59.596 5.818zm-19.956-57.686s.522.162 11.34 9.337c32.698-6.042 45.298 31.875 13.78 42.487 10.693 3.025 26.096 1.67 36.688-2.673 5.537-3.561 11.172-10.547 13.9-18.155 7.252-20.778-23.533-28.391-31.15-30.576-15.45-4.345-29.791-3.697-44.559-.42z"
            transform="matrix(.02668 .0006 -.00052 .03071 -4.273 -4.44)" />
         <path id="left-eyeliner" style="fill:#c4c4c4;"
            d="M1289.527 490.533c-1.155 6.71-2.991 11.84-5.23 15.652-2.878 4.903-6.346 7.895-10.04 8.75-6.621 1.531-11.932-.211-15.626-3.02-3.439-2.613-6.761-1.635-10.746-5.363 10.88-15.897 34.117-14.704 41.642-16.019z"
            transform="matrix(.02668 .0006 -.00052 .03071 -4.273 -4.44)" />
         <g id="left-eye" style="stroke-width:2.487;">
            <path class="white outline" style="stroke-width:1.658;"
               d="M749.937 313.058c.242 2.279 3.713 5.644 7.509 5.23 3.796-.413 6.48-4.448 6.238-6.726-.242-2.278-3.318-1.426-7.115-1.013-3.796.413-6.874.232-6.632 2.51z"
               transform="matrix(.05145 -.0063 .00496 .05743 -11.185 -1.448)" />
            <g style="stroke-width:2.487;">
               <path style="fill:#434343;" transform="matrix(-.06216 .00762 .006 .06939 72.43 -15.508)"
                  d="M728.105 314.308a2.985 3.116 0 1 1-5.97 0 2.985 3.116 0 1 1 5.97 0z" />
               <path class="white" transform="matrix(-.06216 .00762 .00536 .06203 72.569 -13.24)"
                  d="M725.125 313.125c-.555 0-1.063.474-1.063 1.188 0 .713.508 1.187 1.063 1.187.555 0 1.031-.45 1.031-1.188 0-.736-.476-1.187-1.031-1.187z" />
            </g>
         </g>
         <g id="nose">
            <path class="light-fill"
               d="M1173.54 514.068c1.8 4.108 3.322 7.608 6.28 5.99 3.504-1.918 8.453-9.673 10.178-13.019 2.041-3.959.39-9.848-3.51-12.522-1.578-1.081-2.126-.4-6.866-.59l-3.508 5.396-4.456 4.558z"
               transform="matrix(.02668 .0006 -.00052 .03071 -4.273 -4.44)" />
            <path
               d="M1174.463 510.067s1.366-5.66 3.46-6.9c1.297-.768 3.07-2.19 4.338-1.378.99.634.945 2.474.279 3.423-1.921 2.742-8.077 4.855-8.077 4.855z"
               transform="matrix(.02668 .0006 -.00052 .03071 -4.273 -4.44)" />
         </g>
         <g id="left-ear" style="stroke-width:4.42621;">
            <path class="white"
               d="M1359.339 492.486c6.455-8.082.74 3.405 1.637.12 3.867-18.96 15.155-33.768 26.491-33.744 15.128-4.636 34.611 7.894 32.428 21.907 6.056 30.887-12.207 32.575-31.734 28.705-18.612-20.41-18.375-6.21-25.153-14.068-1.224-1.42-2.456-2.151-3.669-2.92z"
               transform="matrix(.0293 -.00564 .00581 .03105 -11.496 4.234)" />
            <path class="white"
               d="M1418.026 479.058c-23.251-23.627-42.363-7.649-57.7 14.933 8.91 9.328 13.752 6.255 26.276 16.855 11.424 1.698 17.063 6.401 23.652 1.357 11.195-8.568 14.844-25.063 7.772-33.145z"
               transform="matrix(.0293 -.00564 .00581 .03105 -11.496 4.234)" />
            <path class="lightest-fill"
               d="M1368.128 480.252c15.468-19.625 31.741-25.12 52.122-1.432.618 2.138 2.343 9.206.932 16.062-1.41 6.842-5.743 17.585-10.94 22.048-5.988 5.143-12.462 6.646-20.424 5.842-5.399-1.069-10.076-4.894-15.422-8.924-9.49-7.154-14.381-21.36-6.268-33.596z"
               transform="matrix(.0293 -.00564 .00581 .03105 -11.496 4.234)" />
            <path style="fill:#7b6231;stroke-width:4.42621;"
               d="M1378.71 460.973c-2.95 3.181-7.132 5.684-10.177 9.553-.404 1.781.674 2.235 1.563 1.69 3.326-4.225 6.457-8.218 9.567-11.806-1.56-.14.051.288-.953.563z"
               transform="matrix(.0293 -.00564 .00581 .03105 -11.496 4.234)" />
            <path style="fill:#c4c4c4;"
               d="M1369.825 500.941c.985-13.27 10.316-24.94 29.512-28.14-15.664 5.671-21.723 21.785-19.936 26.372.754 1.937 13.11 8.105 29.612-1.54-14.284 14.329-31.437 10.706-39.188 3.308zm48.845-21.856s-.662 13.344-11.526 25.389c-10.864 12.045-29.345 13.066-28.307 13.328 1.038.262 12.776 10.448 27.919 1.024 15.142-9.425 17.264-34.778 11.914-39.74z"
               transform="matrix(.0293 -.00564 .00581 .03105 -11.496 4.234)" />
            <path style="fill:#6b6b6b;stroke-width:4.42621;"
               d="m1368.049 501.248-.114.246.518.437c10.5 14.22 31.48 10.268 40.884-4.577-7.816 8.816-25.709 13.547-38.58 3.86 1.381-13.347 17.18-23.124 28.701-28.638-25.917 2.403-30.808 18.595-31.41 28.672z"
               transform="matrix(.0293 -.00564 .00581 .03105 -11.496 4.234)" />
            <path style="stroke-width:4.42621;"
               d="M1408.872 519.443c-2.504-.6 1.082-4.956.697-5.48-3.75 1.79-14.46 6.954-22.874 8.269 7.98 3.107 18.142-.708 22.177-2.789z"
               transform="matrix(.0293 -.00564 .00581 .03105 -11.496 4.234)" />
         </g>
         <g id="body-outline">
            <path class="none outline" style="stroke-width:4.74694;"
               d="M1396.87 521.553c-.776 1.855 20.488-17.774 6.514-42.727-3.148-16.85-31.977-21.945-51.038-9.406-6.558-4.507-13.906-9.684-19.773-11.985-16.494-7.041-28.375-4.803-44.208-4.069-7.71.35-14.912.405-19.46.479-19.114.31-21.89 5.67-33.45 27.65-6.317-.164-6.478 3.213-11.382 4.99-6.467 2.343-6.06-2.57-18.103 3.519-6.166 3.118-12.894 6.692-20.308 4.171-18.785-2.403-15.865 21.87-7.34 25.81-6.863 16.559.422 28.614 11.326 32.615l1.119 2.905c-.646 1.271-.362 3.139.747 4.828 3.007 2.454 4.423 2.286 4.8 5.486.882 13.981 25.047 16.653 39.591 18.845 10.642 1.6 7.343 12.36 14.94 11.306 6.66-1.297 6.873 4.061 7.36 6.056-.557 3.582-4.81 3.303-7.162 5.076-31.053-7.875-6.528 7.084-28.76 1.803-.518 4.898-12.982 1.566-12.33 3.915-16.354 12.189-20.214 3.664-36.245 14.777-2.217 1.537-4.584 3.605-6.489 4.448-6.291 2.785-10.27 1.411-10.27 1.411s1.256 5.334 8.44 4.715c-46.636 10.64-31.336 32.583-58.561 40.311 6.286 2.459 6.998-2.092 7.473 1.41-14.218 17.964-32.808 90.013-16.906 96.192m45.229 100.717c3.928 5.42 9.259 9.88 16.049 16.538 68.546 67.228 84 91.84 86.998 132.524m106.908 18.852a942.72 942.72 0 0 1-.388 1.925c1.025 25.202 24.339 33.842 37.08 31.721-2.878-1.521-5.481-3.526-7.027-7.322 14.062 3.05 26.064 3.398 39.282-2.462-18.947-9.473-36.375-31.098-35.303-54.496-.218-4.755.395-9.672.152-15.791-.218-5.488-5.534-16.677-12.289-20.126 28.028-76.139-33.206-143-1.036-164.749 4.594 4.56 8.032 4.442 14.625 3.122-4.677-6.048-18.557-16.325-14.451-33.304 2.23 7.019 13.794 12.81 19.722 10.195 0 0-17.234-6.312-13.83-31.63 1.383 5.006 9.449 8.11 13.61 6.445-18.777-23.486-2.741-29.785-15.635-68.487-11.3-20.228-4.12-34.61 1.69-55.512 3.52 7.764 10.254 14.2 12.94 7.392-10.457-6.09-9.607-25.326-9.607-25.326 4.592 2.87 6.824 7.228 14.379 5.618 0 0-4.258-7.569-3.498-16.444-1.705-23.611 4.524-45.603 6.591-65.353.793-10.664.956-23.426-2.293-29.658"
               transform="matrix(.02668 .0006 -.00052 .03071 -4.273 -4.44)" />
            <path class="flesh"
               d="m1376.706 986.645 3.954 5.78c3.53 5.16 2.783 11 1.898 16.53-.175 31.115 7.868 36.876 16.298 47.042-4.064 1.53-16.988-3.768-24.127-25.679-5.824 4.134-5.163 12.684-6.919 19.589-8.364-21.092 7.022-35.118 8.896-63.262z"
               transform="matrix(.02668 .0006 -.00052 .03071 -4.273 -4.44)" />
            <path class="outline light-fill" style="stroke-width:4.74694;stroke-linecap:butt;stroke-linejoin:miter;"
               d="M1224.356 965.831s-6.503 2.487-9.24 4.563c-2.032 1.542-5.113 5.695-5.113 5.695l31.192 30.685 5.744-7.38z"
               transform="matrix(.02668 .0006 -.00052 .03071 -4.273 -4.44)" />
            <path style="fill:#6b6b6b;"
               d="M1201.82 555.934c-4.778-.318-10.377.076-10.377.076l-1.374-5.517c2.293.17 11.25-.205 13.649-.06 11.404.688 18.852 3.98 28.225 10.321-10.623-2.868-20.583-4.205-30.123-4.82z"
               transform="matrix(.02668 .0006 -.00052 .03071 -4.273 -4.44)" />
         </g>
      </g>
      <g id="left-forearm-outline" style="stroke-width:1.53079;">
         <g style="stroke-width:1.7904;">
            <path
               d="M121.546 484.764c.347-.329 1.06-1.168 2.304-1.851-.661-1.033-.802-1.368-.506-1.62 2.928-1.191 4.655.385 5.744 2.603.326 1.414.32.468.493 2.206 2.056-3.696 1.237-7.081 1.253-7.388.738.088 4.761 1.14 5.591 1.382 4.984 1.451 2.512 6.787 3.38 7.586 1.704 1.568 2.49-5.286 5.876-3.906 1.527.622 2.955 2.944 3.931 6.847 1.948.59 2.52-4.796 3.821-4.33.888.317 3.691 2.507 4.54 2.805 3.877-2.627 10.204-.281 9.565 3.826 1.062.027 1.087-1.183 1.79-2.189 5.182 5.2 7.249-1.426 16.032 3.147 1.573-3.376.322-5.042 4.677-4.346-2.654-1.948-4.824-7.715 1.625-12.182-2.955-.481-2.941-3.348.252-7.344-5.627 7.404-6.976 7.402-11.24 8.735-6.745.896-9.469-2.991-13.75-6.085-9.423-5.866-23.935-15.992-30.024-21.276.6-5.622-1.798-9.717-11.158-13.406 1.278.213.06-6.108-1.194-10.829-.105-.395-3.168-5.734-1.964-4.113 1.35 1.817.462-.831.23-.9-2.504-.735 2.357-.766 5.204 13.587 3.115 3.81 7.739 4.806 8.86 6.245l6.26 8.044 32.59 24.735 5.95.289 13.817-12.547h1.705c.948 0 2.275.19 2.275.19l2.084 3.221v2.653l-1.516 2.085 1.706 2.654.19 1.516-.19 1.705-1.706.948.569 1.895.568 3.033-.947 1.895-.758 1.137.947 2.464-.379 1.326-2.464 1.896.569 1.895-1.137 4.359c-2.09 3.184-4.611-.86-6.065-.38-1.413.912-1.777 2.435-2.464 3.602-1.14 1.407-2.705.644-3.79-.569-6.51-5.758-11.91 2.11-15.977-3.233-2.304 2.443-4.83 1.7-5.016 1.16 2.408-2.584-.707-5.996-3.599-4.847 0 0-2.655 1.131-1.183 5.025 0 0-1.895 0-2.464-.758-.568-.758-1.137-1.706-1.137-2.653 0-.948.758-2.085 0-2.654a11.2 11.2 0 0 0-1.516-.947c-.934 4.681-3.97 2.048-7.013 7.012.32-4.61.355-6.394-2.274-9.855 0 0-.19-.758-.947.379-1.535 4.096-3.919 3.954-6.634 5.685-1.705 1.138-2.274 1.706-2.274 1.706-.288-2.184.832-3.533 1.347-5.492.697-2.71.052-5.467-.589-5.88-.947-.568-1.516-1.894-1.516-1.136-.12 4.932-4.037 8.222-7.58 8.339.588-.788 1.448-2.765-.432-5.574-2.925-1.43-3.501 3.025-8.666 3.678 3.851-1.834 4.655-12.159-.351-12.85.533-.123.567.02.567.02"
               class="light-fill" transform="matrix(-.06828 -.02137 -.01857 .07859 43.027 -12.713)" />
            <path
               d="M121.203 416.921c3.33 4.488 7.212 11.396 7.104 19.115 9.057.188 13.266 12.129 16.488 14.403 2.37 1.674 16.438 12.274 24.763 18.74 2.842 1.825 5.658 5.715 9.123 5.746 2.422-.003 4.858-1.46 6.696-3.037 2.294-1.845 4.615-3.775 6.16-6.129 1.433-2.178 2.69-3.627 5.945-3.38 1.77-.111 2.225.114 3.108 1.478l1.251 1.934v2.653l-1.516 2.085 1.706 2.653.19 1.516-.19 1.706-1.706.947.569 1.896.568 3.032-.947 1.895-.758 1.137.947 2.464-.379 1.327-2.464 1.895.569 1.895-1.137 4.36c-2.09 3.183-4.611-.86-6.065-.38-1.413.911-1.777 2.435-2.464 3.601-1.14 1.408-2.705.644-3.79-.568-6.51-5.759-12.232 2.121-16.3-3.222-2.304 2.443-4.741 1.868-4.927 1.326 2.378-2.406-.708-4.826-3.365-5.025 0 0-2.655 1.131-1.183 5.025 0 0-1.895 0-2.464-.758s-1.137-1.705-1.137-2.653.758-2.085 0-2.653a11.175 11.175 0 0 0-1.516-.948c-.934 4.681-3.97 2.049-7.013 7.012.32-4.61.354-6.393-2.274-9.855 0 0-.19-.758-.948.38-1.534 4.095-3.918 3.953-6.633 5.685-1.706 1.137-2.274 1.706-2.274 1.706-.288-2.184.831-3.533 1.347-5.492.697-2.71.052-5.468-.589-5.88-.948-.568-1.516-1.895-1.516-1.137-.12 4.932-4.037 8.222-7.581 8.34.59-.789 1.122-2.688-.758-5.497-2.925-1.43-2.197 2.688-7.362 3.341 2.597-6.941 3.46-11.937-1.546-12.628-1.104 1.562-3.828 2.997-3.828 2.997-.662-8.13-5.46-7.738-8.873-19.458-.696 2.806-1.004 5.732-3.977 7.933-.846-8.154-5.619-11.955-5.619-11.955s-1.224 2.291-7.458 2.668c2.194-5.09.645-9.926.645-9.926s-1.967 2.026-4.057 2.222c.134-5.972-2.199-9.188-3.519-12.74"
               class="none outline" style="stroke-width:1.7904;"
               transform="matrix(-.06828 -.02137 -.01857 .07859 43.027 -12.713)" />
         </g>
      </g>
      <g id="sideburns" style="stroke-width:1.53079;">
         <path class="none outline" style="stroke-width:1.53079;stroke-linecap:butt;stroke-linejoin:miter;"
            d="M221.791 384.922s1.386.574 1.86 1.717c.473 1.144.771 1.403 1.014 2.45-2.013 1.327-2.394 3.847-.54 4.242-.514 1.377-1.672.883-2.546 1.245-.278 2.294 2.949 4.472.948 7.835-.793-4.151-4.277-4.685-5.346-5.057-.856-.22-2.079-.861-2.079-.861l3.77 4.944c1.474 2.18 1.652 4.759 1.494 6.844-.82-1.477-2.084-2.518-2.97-3.937-.11 3.074 3.275 3.86 1.98 8.939-1.687-3.722-5.252-2.804-8.767-8.233 1.438 2.373 3.009 5.267 1.31 8.62-.37-4.166-4.967-2.901-5.888-4.429-.46 2.06-.019 4.697-.939 6.512-.546.991-.642 1.222-.642 1.222s-.428-2.883-.767-3.7c-.338-.817-.837-1.284-1.107-1.938-.27-.653-.583-2.145-.583-2.145l-.84-1.566c-2.55-4.06-7.53-4.154-13.502-2.298"
            transform="matrix(.07994 .02463 -.0214 .09201 22.566 -27.299)" />
      </g>
      <path id="left-forearm-middle" class="white" style="stroke-width:1.5;"
         d="M197.5 559.401s-11.183-2.978-11.672 4.903c-1.03 1.793-8.661 5.106-15.558 7.096-11.198 3.232-20.686 4.818-29.06 6.444 2.377-.699 3.183 1.758 5.442.558 2.85-1.542 6.884-1.473 9.018.35 7.667-2.902 14.227-3.368 21.77-2.098 6.814 1.135 15.02.27 26.052-19.856z"
         transform="matrix(.08446 0 0 .0972 10.046 -34.555)" />
      <path id="snout-filler" class="white" style="stroke-width:1.5;"
         d="M205.972 483.362c1.057-.635 2.348-2.009 1.216-6.007 7.563-3.102 5.431-1.006 9.272-3.35.653-1.205.395-1.286.855-1.46.1-.038-.055.22-.087.07l-.27 1.606c-1.607 1.33-6.337 2.052-7.876 3.581-.792.786-1.645 5.565 1.539 5.684.62.14 1.241-.165 1.678-.28 4.969-1.318 4.74.216 4.415.834-1.34.847.675 1.934-2.058 2.285-4.117.529-4.932-.086-7.36.428-4.49-.157-3.242-2.722-1.324-3.391z"
         transform="matrix(.08446 0 0 .0972 10.046 -34.555)" />
      <g id="left-leg" style="stroke-width:4.54253;">
         <g style="stroke-width:4.54253;">
            <g style="stroke-width:4.54253;">
               <g>
                  <path class="flesh"
                     d="M238.566 558.827c-3.023 2.985-6.544 5.253-9.393 2.93 4.51-3.013 5.098-4.096 5.122-5.895.014-1.035.143-2.669.795-4.786.125-.625-.792-.82-.792-.82-4.007.64-4.6 4.476-8.375 3.75 3.153-2.352 4.479-6.143 4.211-9.756-2.448 2.365-4.004.36-5.765.928 1.01-.922 1.595-1.573 2.453-2.702.764-1.264 2.263-3.101 1.96-4.475-.077-.312-.054-1.333-.553-1.731-3.405-9.454.328-10.64-11.218-13.89a6489.63 6489.63 0 0 1 2.123-15.437c.436-3.08-.993 3.199.415-6.258.102-2.727 1.142-6.085 2.99-8.272 1.204 1.529 2.552 5.666 4.079 6.047 15.082 3.76 30.379 2.281 40.759 13.308 5.303 6.187 8.131 10.96 10.253 23.158 2.12 12.197 10.076 15.91 10.076 15.91s-5.303 2.12-12.198-6.895c-6.894-9.015 2.122 5.303 3.182 5.48 1.06.177-4.42.53-7.778-4.773-1.872 2.625 2.734 4.897 4.713 6.38-7.46-.71-6.852-2.864-8.425-5.85a14.003 14.003 0 0 1-.884-1.767v2.828c.257 3.587-1.862 4.253-.465 7.16 1.526 3.119 5.262 8.743 13.723 13.523 6.316 4.056 13.869 7.343 18.194 4.853 7.206-4.148 7.196-3.03 10.267-2.732l2.652.708 1.59 1.59.178 1.061s0 1.238-1.591 2.122c-1.591.883-2.122 4.242-3.713 4.419-1.59.177-2.485 3.103-4.607 4.163-2.121 1.06-.651 10.2-.651 10.2l-1.414.885-.884-1.06-1.414 1.59c-1.503-.31-3.925-.596-4.596-1.237a5.345 5.345 0 0 1-1.061-1.591c.429 1.23-1.834 2.885-.707 5.126-.884-.353-2.298-1.59-2.298-1.59-4.11-3.73-2.285.204-1.061 1.413-2.262-.495-3.67-1.148-5.48-2.828-2.143.489 2.036 3.454.702 2.89-3.836-1.44-4.084-2.183-4.712-5.249-.114 2.412-3.942 4.632-5.088 3.514.237-1.205-.978-2.57-2.393-2.216-2.544.566-4.291 2.057-4.773 2.298-3.133 2.048-5.38.147-7.6.53l2.65-2.12c-1.407-.287-2.702-.177-3.181-.177-2.856 0-2.735-2.513-2.735-2.513 1.943 1.093 3.133 1.183 3.795.568 0 0-5.729-8.32-10.651-8-3.066.306-8.406 1.03-11.815-2.522 9.582-.37 7.65-4.931 6.865-7.377-3.375 6.179-7.255.831-10.269 1.57 1.697-3.486 6.54-.522 9.4-7.079.04-.412.08-1.601-1.428-1.391-2.624 1.14-3.72-.607-7.367.732.719-1.233.07-2.849 2.542-3.582 2.162-.56 2.906-3.644 1.646-5.063z"
                     transform="matrix(-.06985 .05498 .04776 .0804 21.367 -26.426)" stroke="none" />
                  <path transform="matrix(.0843 .006 -.00522 .09702 -.568 -29.108)"
                     d="M412.656 581.344c.463.02-.916.902-3.625-.125 1.835 1.733 3.34 4.444 4.938 6.125.277.291-3.746-.708-5.344 2.468 2.78 2.836 4.451 5.033 7.375 7.5-1.024.364-2.587-.75-4.031.532-5.067 2.516 3.556 9.364 5.625 7.5-.855 1.3-.329 1.368-1.781 1.687-3.184.984-2.254 2.739-1.157 5.188 1.23 1.538 3.068 2.601 5.75 1.656-1.674.906-4.036 2.583-3.719 3.844 1.396 5.544 1.804 3.876 4.563 4.531-1.696 3.575-6.807 8.95-5.406 19.094-2.99-.236-5.124.396-7.625 2.656-.842 1.091-1.58 2.18-.938 3.281-1.27 1.036-4.794-1.661-6.219-2.218l1.25 5.593-2.25-.812-.312 3.468-.938-.25-2.843-1.125-.813 4-3.75-1.718-.687 4.968c.08-1.386-1.642-4.45-3.781-1.343 1.616-3.915-3.118-7.088-6.594-3.532 1.662-2.344.839-3.763-.531-4 10.032-3.314 13.445-15.347 16.53-27.5 1.093-3.262-.187-7.792-.28-11.343-.165-1.634-3.74-5.875-5.22-6.469-4.642-1.864-7.08-5.402-9.124-7.75l.844 7.906c-.553-.128-1.312-2.417-1.72-3.5-.402.508-1.201 1.659-1.187 3.25-.97-1.407-1.507-1.784-2.312-2.406-1.185.295-1.537 2.205-1.719 2.781l-.469 1.938c2.584-17.87-7.78-22.519-1.469-34.094a84.668 84.668 0 0 1 1.344-3.438c5.4-13.438 16.897-18.439 16.063-26.718-.421-2.17-1.544-3.689-3.014-4.965l-2.486 9.558-8.938 10.125c-2.317 2.533-4.477 5.015-6.219 7.5-3.83 5.467-5.671 11.485-6.062 15.625-.384 8.156.325 13.677 6.156 24.625 5.832 10.95 1.844 18.782 1.844 18.782s5.097-1.517 5.344-11.907c0-.02.03-.041.031-.062.135-.908.165-2.038.062-3.406.193-5.587 1.47 7.973.813 8.687-.73.793 3.828-2.302 3.219-8.562 3.095.923.838 5.577.187 7.968 5.46-5.153 3.656-6.484 3.063-9.812-.054-.443-.146-.85-.219-1.188-.002-.009.002-.022 0-.03.162.048.373.144.562.218l1 1.281c2.005 2.994 4.096 2.217 4.782 5.375.712 3.405 1.215 10.138-2.532 19.125-2.34 6.652-5.945 13.45-10.468 14.844a5.804 5.804 0 0 1-.907.219c-8.25 1.157-7.568 2.03-9.812 4.156l-1.656 2.188-.282 2.218.5.97s.761.967 2.563.687c1.802-.281 4.29 2.058 5.656 1.218 1.367-.84 3.889.905 6.219.438 2.33-.467 6.358 6.668 9.186 6.509 2.829-.159 4.147-2.902 4.283-3.822.123-.994-.125-1.906-.125-1.906.418 1.236 3.198 1.16 3.687 3.625.481-.824.844-2.656.844-2.656.953-5.477 1.942-1.273 1.719.437 1.437-1.728 2.159-3.07 2.562-5.375.072-.1.147-.224.188-.28 1.748-.59.375 4.012 1.062 2.78 2.147-3.498 1.89-4.251.5-7.062 1.574 1.837 5.97 1.246 6.188-.344-.93-.806-.805-2.628.53-3.219 2.36-1.12 4.66-1.02 5.188-1.125 3.738-.31 4.322-3.186 6.313-4.25-1.785-.023-2.276-.057-2.656-.062-.057-.159-.122-.354-.188-.531.79-.782 1.565-1.321 1.875-1.563 2.258-1.758.594-3.687.594-3.687-.863 2.06-1.755 2.89-2.656 2.812 0 0-.59-10.13 3.5-12.906 1.723-1.086 4.334-2.63 6.062-4.969.004-.005.028.005.031 0a.425.425 0 0 0 .188-.281c.005-.007-.005-.024 0-.031.774-1.135 1.342-2.446 1.5-3.97-4.726 3.397-7.042 2.96-8.344 1.563-.018-.146-.136-.248-.281-.343-.611-.818-.957-1.843-1.25-2.657a4.65 4.65 0 0 1 .187-.093c6.202 2.514 6.014-3.903 8.813-5.157-1.93-.947-3.405.25-5.406.938-3.15.278-5.226-.157-6.438-.813-.31-.344-.909-1.184.344-1.906 2.776-.714 2.573-2.782 6.281-3.969-1.327-.532-1.813-2.192-4.219-1.25-1.638.708-3.542-.431-4.187-1.875.27-.136.066-.215-.125-.312-.03-.101-.077-.21-.094-.313.109-.104.413-.225.938-.406 3.823.328 7.117-.22 7.875-3.531-8.535.622-5.174-1.326-10.157-4.813-1.307-.766-.425-1.68-.218-1.593 1.007-.555 1.984-.568 2.843-.563 2.178.014 3.9.89 5.72-1.187-.955-.153-2.067.097-3.063-.282-2.51-.953-4.358-2.537-5.188-3.625-.49-.642-.797-1.039-.25-1.187 3.764-1.02 3.76-2.395 4.344-3-1.366-.107-2.283-.104-3.656-.469-1.382-.529-3.144-1.29-3.75-2.562-.079-.175-.52-.604-.875-1.063-.081-.669-.095-1.455-.188-2.312.03-.422.074-.771.156-1.094.184-.72.47-1.363.782-2.344a.33.33 0 0 1 .187-.125c.754-1.701.423-1.09 1.125-2.625.327-4.91 5.262-11.16 4.531-21.625-.265-.236-3.543 11.334-4.468 11.547-5.38 12.2-9.3 21.034-.188 23.422zm3.25 6.125c.537.419 1.094.797 1.688 1.094-.68-.202-1.225-.593-1.688-1.094zm11.531 32.719c-.566.335-1.109.497-1.625.53.501-.128 1.055-.31 1.625-.53z"
                     class="light-fill" stroke="none" />
                  <path class="none outline" style="stroke-width:1.49706;"
                     d="M230.664 498.596c.737.112 7.519 1.203 8.257 1.319 10.91 1.71 21.77 4.07 29.097 11.933 5.272 6.215 8.076 11.002 10.135 23.21 2.059 12.209 9.995 15.961 9.995 15.961s-5.314 2.095-12.163-6.956c-6.848-9.05 2.095 5.314 3.154 5.496 1.06.182-4.422.508-7.753-4.813-1.886 2.616 2.708 4.91 4.68 6.405-7.456-.749-6.837-2.9-8.395-5.893-.526-.887-.875-1.772-.875-1.772l-.015 2.828c.239 3.588-1.883 4.243-.501 7.158 1.51 3.126 5.217 8.769 13.654 13.592 6.295 4.089 13.83 7.414 18.168 4.946 7.228-4.111 7.212-2.994 10.282-2.679 1.988.243 2.9.976 4.23 2.32l.172 1.061s-.006 1.238-1.602 2.114c-1.596.875-2.143 4.231-3.735 4.4-1.592.169-2.501 3.09-4.628 4.14-2.127 1.05-1.808 9.705-3.314 10.736-1.506 1.03-5.03.24-5.699-.405a5.344 5.344 0 0 1-1.052-1.596c.422 1.232-1.849 2.876-.734 5.123-.882-.358-2.29-1.603-2.29-1.603-4.09-3.75-2.285.193-1.067 1.409-2.26-.507-3.665-1.167-5.466-2.857-2.146.478 2.019 3.465.687 2.893-3.828-1.458-4.072-2.203-4.685-5.272-.126 2.41-3.965 4.611-5.106 3.487.244-1.203-.965-2.573-2.38-2.227-2.548.552-4.303 2.035-4.786 2.274-3.143 2.03-5.382.119-7.604.491l2.663-2.108c-1.407-.293-2.702-.19-3.181-.193-2.856-.014-2.722-2.526-2.722-2.526 1.937 1.103 3.127 1.198 3.792.587 0 0-5.686-8.35-10.61-8.054-3.067.29-8.411.987-11.801-2.583 9.583-.32 7.674-4.892 6.902-7.342-3.407 6.162-7.26.795-10.277 1.519 1.715-3.478 6.542-.49 9.436-7.032.042-.412.087-1.6-1.421-1.398-2.63 1.127-3.716-.626-7.37.695.724-1.23.085-2.85 2.56-3.57 2.164-.55 2.924-3.629 1.671-5.054-3.038 2.97-6.57 5.22-9.407 2.881 7.126-4.707 3.611-4.431 5.427-10.222.128-.625-.243-1.252-.243-1.252-4.011.619-4.623 4.453-8.394 3.708 3.165-2.336 4.048-5.992 3.799-9.606-2.46 2.352-4.117.536-5.88 1.095 1.014-.917 2.175-1.89 3.038-3.015.77-1.26 1.715-2.932 1.419-4.308.215-3.247-4.793-5.822-7.31-6.75"
                     transform="matrix(-.06985 .05498 .04776 .0804 21.367 -26.426)" />
                  <path class="white"
                     d="M448.742 634.79c4.035 2.15-.129-.05 2.916 2.037.935.64-23.937 26.308-25.582 26.762-20.471.363 1.37 13.652-8.632 14.844-10.192 1.215-19.25 10.311-27.855 19.14-9.51 9.76-16.01 21.43-10.585 32.413-12.397-4.652-16.154 4.302-16.154 4.302-1.402 8.067-1.964 16.732-1.445 26.02-12.164 5.334-15.929 12.702-18.165 35.867l-15.857 44.947c-16.408.985-25.873 6.889-31.435 18.631-11.78-.883-15.952-.396-26.567-.913 34.988-7.778 49.374-30.81 63.076-56.877 21.776-65.653-12.872-73.015-3.643-103.97 4.722-13.85 43.042-28.604 73.078-41.874 23.54-10.4 42.849-16.768 46.85-21.328z"
                     transform="matrix(.0234 -.01746 .01517 .02693 10.417 16.865)" />
                  <path
                     d="M199.108 885.888s.042 1.44.433 1.993c.394.55 1.731 1.032 1.731 1.032 4.457-4.407 13.449-6.718 19.843-8.614-4.298-1.384-13.041-.03-22.007 5.59m-9.381-18.959s-.155 1.433.157 2.034c.315.599 1.574 1.259 1.574 1.259 5.017-3.759 14.24-4.822 20.833-5.827-4.07-1.958-12.916-1.808-22.564 2.535m-10.183-18.056s-.408 1.381-.21 2.028c.204.646 1.325 1.52 1.325 1.52 5.607-2.8 14.872-2.195 21.539-2.005-3.654-2.655-12.384-4.09-22.654-1.543"
                     style="stroke-width:1.18134;" transform="matrix(.0234 -.01746 .01517 .02693 10.417 16.865)" />
               </g>
            </g>
         </g>
      </g>
      <path id="left-abdomen" class="white" style="stroke-width:1.5;"
         d="M237.052 567.879c.411 2.385.468 5.116-.472 8.29-2.476 4.409.347 7.502 1.843 11.37 9.417 11.921 10.01 30.044 9.21 38.861-.937 10.323-1.392 7.757-2.867 12.006-.568 1.635-1.656 2.798-2.527 4.403-1.49 2.744-3.575 5.443-4.252 8.417-1.982.967-6.422-.248-8.246-1.475-2.095-1.41 3.018-1.875 2.904-4.332-.118-2.56-.164-6.261 1.632-8.13 3.243-4.968 3.739-6.956 3.515-11.164-5.93-21.112-17.083-16.99-34.137-33.646 3.431-2.315 5.66-2.756 9.49-4.008 8.91-2.913 16.118-9.465 23.907-20.592z"
         transform="matrix(.08446 0 0 .0972 10.046 -34.555)" />
      <path id="left-upper-thigh" style="stroke-width:1.5;"
         d="M227.731 615.69s2.613 4.345.767 7.548c-1.846 3.203-4.405 5.254-4.405 5.254l-.807-1.134s2.244-1.714 3.736-4.286c1.492-2.572 1.16-5.282.71-7.381z"
         transform="matrix(.08446 0 0 .0972 10.046 -34.555)" />

      <g id="left-claw" style="stroke-width:1.32586;">
         <g style="stroke-width:1.45845;">
            <path class="flesh outline" style="stroke-width:1.45845;"
               d="M141.81 460.322c.202-1.028-1.139-1.641-2.339-1.641-1.148 0-3.24 1.084-2.706 2.03 1.08 2.293.376 4.799-.661 6.962 3.459-.985 5.44-3.886 5.706-7.351z"
               transform="matrix(-.00667 -.09968 -.0866 .00768 61.294 32.069)" />
         </g>
         <g style="stroke-width:1.45845;">
            <path class="flesh outline" style="stroke-width:1.45845;"
               d="M141.81 460.322c.202-1.028-1.139-1.641-2.339-1.641-1.148 0-3.24 1.084-2.706 2.03 1.08 2.293.376 4.799-.661 6.962 3.459-.985 5.44-3.886 5.706-7.351z"
               transform="matrix(-.00667 -.09968 -.0866 .00768 61.545 30.146)" />
         </g>
         <g style="stroke-width:1.45845;">
            <path class="flesh outline" style="stroke-width:1.45845;"
               d="M141.263 460.398c.202-1.028-1.14-1.64-2.34-1.64-1.147 0-3.24 1.083-2.705 2.03 1.08 2.292.376 4.798-.661 6.961 3.459-.985 5.44-3.886 5.706-7.35z"
               transform="matrix(-.00667 -.09968 -.0866 .00768 61.324 31.368)" />
         </g>
         <g style="stroke-width:1.32586;">
            <g style="stroke-width:1.45845;">
               <path class="flesh outline" style="stroke-width:1.45845;"
                  d="M140.975 459.559c-.093-1.044-1.551-1.259-2.704-.925-1.102.32-2.81 1.944-2.033 2.704 1.676 1.901 1.698 4.504 1.304 6.87 3.048-1.91 4.142-5.247 3.433-8.65z"
                  transform="matrix(-.0177 -.09788 -.08504 .02037 62.235 24.643)" />
               <path
                  d="M126.417 562.434s-.31.36-.338.583c-.026.221.193.637.193.637 2.068-.083 4.776 1.355 6.757 2.316-.74-1.295-3.174-2.91-6.612-3.536m-1.154 6.381s-.31.36-.338.582c-.026.222.193.637.193.637 2.068-.083 4.776 1.355 6.757 2.316-.74-1.294-3.174-2.91-6.612-3.535m-1.986 6.637s-.232.415-.214.638c.018.223.316.586.316.586 2.01-.497 4.95.368 7.085.911-.985-1.119-3.694-2.213-7.187-2.135"
                  class="" style="stroke-width:.373295;" transform="matrix(.08446 0 0 .0972 10.046 -34.555)" />
            </g>
         </g>
      </g>
      <g id="left-foot-claw" style="stroke-width:1.32586;">
         <g style="stroke-width:1.45845;">
            <path class="flesh outline" style="stroke-width:1.45845;"
               d="M141.81 460.322c.202-1.028-1.139-1.641-2.339-1.641-1.148 0-3.24 1.084-2.706 2.03 1.08 2.293.376 4.799-.661 6.962 3.459-.985 5.44-3.886 5.706-7.351z"
               transform="matrix(-.07103 -.05754 -.05 .08176 61.655 7.788)" />
         </g>
         <g style="stroke-width:1.45845;">
            <path class="flesh outline" style="stroke-width:1.45845;"
               d="M141.81 460.322c.202-1.028-1.139-1.641-2.339-1.641-1.148 0-3.24 1.084-2.706 2.03 1.08 2.293.376 4.799-.661 6.962 3.459-.985 5.44-3.886 5.706-7.351z"
               transform="matrix(-.07103 -.05754 -.05 .08176 60.107 6.91)" />
         </g>
         <g style="stroke-width:1.45845;">
            <path class="flesh outline" style="stroke-width:1.45845;"
               d="M141.81 460.322c.202-1.028-1.139-1.641-2.339-1.641-1.148 0-3.24 1.084-2.706 2.03 1.08 2.293.376 4.799-.661 6.962 3.459-.985 5.44-3.886 5.706-7.351z"
               transform="matrix(-.07103 -.05754 -.05 .08176 61.141 7.473)" />
         </g>
         <g style="stroke-width:1.45845;">
            <path class="flesh outline" style="stroke-width:1.45845;"
               d="M141.81 460.322c.202-1.028-1.139-1.641-2.339-1.641-1.148 0-3.24 1.084-2.706 2.03 1.08 2.293.376 4.799-.661 6.962 3.459-.985 5.44-3.886 5.706-7.351z"
               transform="matrix(-.07103 -.05754 -.05 .08176 60.6 7.217)" />
         </g>
      </g>
      <g id="right-claw" style="stroke-width:4.74694;">
         <path
            d="M116.47 507.584s-6.795 1.446-6.813-5.675c-.018-7.122 4.427-4.82 7.395-7.033s7.2-2.47 12.71-1.263c5.511 1.207 7.876 7.126 7.876 7.126s-2.862 4.535-8.357 9.363"
            class="flesh" transform="scale(.08446 .0972) rotate(-43.138 -255.011 162.205)" />
         <path class="light-fill"
            d="M130.713 494.075c1.004.272 3.098 2.197 3.098 2.196-1.427-.66-4.74-.61-6.333-1.284-1.268-.536-2.907-.4-3.996-.398-1.857.002-4.084 1.293-6.462 2.16-1.807.657-3.92.62-3.948.267 1.86-.262 3.45-1.825 4.5-2.358 4.312-2.189 9.06-2.592 13.141-.583zm-1.88 16.78s6.25.19 7.765-3.22c0 0-.379 4.925-3.788 6.44-3.41 1.515-5.42-1.182-5.42-1.182m-8.805-5.396c-.757-1.894-5.284 1.275-6.61-.43-1.325-1.705.947-3.788.947-3.788l4.925 3.03"
            transform="scale(.08446 .0972) rotate(-43.138 -255.011 162.205)" />
         <path class="none outline" style="stroke-width:1.5;"
            d="M116.47 507.584s-6.795 1.446-6.813-5.675c-.018-7.122 4.427-4.82 7.395-7.033s7.2-2.47 12.71-1.263c5.511 1.207 7.876 7.126 7.876 7.126s4.307 3.544 1.512 9.8"
            transform="scale(.08446 .0972) rotate(-43.138 -255.011 162.205)" />
         <path
            d="M124.67 508.33s.283.383.493.46c.21.075.664-.047.664-.047.378-2.035 2.381-4.356 3.758-6.075-1.427.435-3.542 2.45-4.915 5.663m-5.201-1.835s.322.35.54.403c.217.052.654-.117.654-.117.158-2.064 1.901-4.586 3.086-6.443-1.372.585-3.26 2.815-4.28 6.157m-5.356-1.484s.359.313.58.342c.222.028.639-.189.639-.189-.07-2.068 1.383-4.767 2.356-6.743-1.299.732-2.929 3.157-3.575 6.59"
            class="" style="stroke-width:1.18134;" transform="scale(.08446 .0972) rotate(-43.138 -255.011 162.205)" />
         <g id="right-paw-claws" transform="scale(.08446 .0972) rotate(-43.138 -255.011 162.205)">
            <path
               d="M109.812 500.48c.485-.961 1.96-.613 2.935.145.932.724 1.947 2.925.916 3.356-2.324 1.18-3.334 3.66-3.857 6.07-2.187-2.982-1.965-6.588.006-9.57z"
               id="a" class="flesh outline" style="stroke-width:1.5;" />
            <use height="1052.362" width="744.094" transform="translate(5.625 3.482)" xlink:href="#a" />
            <use xlink:href="#a" transform="translate(10.446 5.625)" width="744.094" height="1052.362" />
            <use height="1052.362" width="744.094" transform="translate(16.071 8.304)" xlink:href="#a" />
         </g>
         <path class="dark-fill" style="stroke-width:1.18134;"
            d="M128.478 512.71c4.178.694 5.561-.238 7.816-3.222-.435 1.427-1.78 6.489-9.01 5.049z"
            transform="scale(.08446 .0972) rotate(-43.138 -255.011 162.205)" />
      </g>
   </g>
</svg>